<svg id="Calque_1" data-name="Calque 1" xmlns="http://www.w3.org/2000/svg" viewBox="0 0 396.65 211.91">
    <defs>
        <style>
            .cls-1 {
                fill: #fff;
                stroke: #fff;
                stroke-miterlimit: 10;
                stroke-width: 7px;
            }
        </style>
    </defs>
    <path class="cls-1"
        d="M3.5,112.84c1.71-6.38,3.69-12.58,8.1-17.76A37.49,37.49,0,0,1,31,83.15c17.84-4.82,35.65-9.76,53.51-14.53a11.55,11.55,0,0,0,6.64-4.53c10.51-14,21.25-27.8,31.78-41.76q14.16-18.81,37.59-18.8,57.44,0,114.88,0,25.83,0,39.51,22.12,12.31,19.86,24.91,39.56a11.86,11.86,0,0,0,4.64,4.11c8.56,4.11,17.23,8,25.89,11.88,15.26,6.84,22.95,18.51,22.72,35.3-.12,9.12.45,18.32-.51,27.35-2,18.71-16.15,31.37-34.94,31.17-6.28-.07-9.11,1.48-11.7,7.53a43.08,43.08,0,0,1-41.62,25.79c-18.86-1-34.18-12.47-40.24-30.25-.75-2.19-1.63-2.93-3.95-2.93q-64.09.11-128.2,0c-2.37,0-3.2.85-3.93,3a44.22,44.22,0,0,1-41.79,30.25c-19.15,0-35.75-11.86-42.1-30.34-.67-1.94-1.31-2.94-3.6-2.87-19.44.65-34.18-12.66-36.64-30.48A2.09,2.09,0,0,0,3.5,144Zm346.75,46.4h6.63c12.38-.08,20.16-7.87,20.19-20.24,0-7.74-.08-15.47,0-23.2.12-9.43-4.18-15.87-12.7-19.71-9.7-4.37-19.45-8.63-29-13.36a19.73,19.73,0,0,1-7.49-6.51c-8.77-13.48-17.41-27.07-25.64-40.89-6.64-11.15-16.08-16-28.94-15.94q-55.16.34-110.31,0c-12.25-.07-21.61,4.42-28.9,14.36-10.63,14.52-21.82,28.63-32.63,43a15.45,15.45,0,0,1-9.19,6.17c-5,1.2-10,2.67-15,4-14.53,4-29.08,7.87-43.56,12-8.66,2.46-14,8.94-14.21,17.17s-.3,16.74,0,25.1c.45,11.64,10.57,19.48,22.24,17.59,4.82-27.22,25.58-38.36,42.93-39a42.66,42.66,0,0,1,25.87,7.41c11.37,7.62,17.61,18.52,19.64,31.86H261.67c5.24-29.38,28.58-39.89,46-39.28C325.28,120.41,345.83,132.33,350.25,159.24ZM86,192.17a28.26,28.26,0,1,0-28.24-28.31C57.56,179.25,70.39,192.11,86,192.17Zm219.47,0a28.4,28.4,0,0,0,28.93-28c.2-15.2-12.37-28.08-27.78-28.47s-28.63,12.3-28.92,28.08C277.36,178.92,289.9,191.74,305.42,192.14Z" />
</svg>