<svg width="56" height="56" viewBox="0 0 56 56" fill="none" xmlns="http://www.w3.org/2000/svg">
<path d="M46.6666 9.33337H9.33325C7.47674 9.33337 5.69626 10.0709 4.3835 11.3836C3.07075 12.6964 2.33325 14.4769 2.33325 16.3334V39.6667C2.33325 41.5232 3.07075 43.3037 4.3835 44.6165C5.69626 45.9292 7.47674 46.6667 9.33325 46.6667H46.6666C48.5231 46.6667 50.3036 45.9292 51.6163 44.6165C52.9291 43.3037 53.6666 41.5232 53.6666 39.6667V16.3334C53.6666 14.4769 52.9291 12.6964 51.6163 11.3836C50.3036 10.0709 48.5231 9.33337 46.6666 9.33337ZM48.9999 39.0834L37.5666 28.8167L48.9999 20.8134V39.0834ZM6.99992 20.8134L18.4333 28.8167L6.99992 39.0834V20.8134ZM22.3532 31.57L26.6699 34.58C27.0605 34.851 27.5245 34.9962 27.9999 34.9962C28.4753 34.9962 28.9393 34.851 29.3299 34.58L33.6466 31.57L45.3132 42H10.7333L22.3532 31.57ZM9.33325 14H46.6666C47.0999 14.0035 47.5237 14.1276 47.8905 14.3584C48.2573 14.5892 48.5526 14.9175 48.7432 15.3067L27.9999 29.82L7.25658 15.3067C7.44725 14.9175 7.74252 14.5892 8.10931 14.3584C8.4761 14.1276 8.89991 14.0035 9.33325 14Z" fill="#4D44B5"/>
</svg>
