<svg width="56" height="56" viewBox="0 0 56 56" fill="none" xmlns="http://www.w3.org/2000/svg">
    <path
        d="M44.352 33.2082C45.64 32.0882 46.48 30.4082 46.48 28.5602C46.48 25.1442 43.736 22.4002 40.32 22.4002C36.904 22.4002 34.16 25.1442 34.16 28.5602C34.16 30.4082 35 32.0882 36.288 33.2082C35.112 33.6562 33.992 34.2722 32.984 35.0562C31.864 33.4882 30.072 32.4802 28 32.4802C25.928 32.4802 24.136 33.4882 23.016 35.0562C22.008 34.2722 20.944 33.6562 19.712 33.2082C21 32.0882 21.84 30.4082 21.84 28.5602C21.84 25.1442 19.096 22.4002 15.68 22.4002C12.264 22.4002 9.52004 25.1442 9.52004 28.5602C9.52004 30.4082 10.36 32.0882 11.648 33.2082C7.16804 34.8322 3.92004 39.2001 3.92004 44.2402V51.5201C3.92004 52.1362 4.42404 52.6401 5.04004 52.6401H50.96C51.576 52.6401 52.08 52.1362 52.08 51.5201V44.2402C52.08 39.2001 48.832 34.8322 44.352 33.2082ZM40.32 24.6402C42.504 24.6402 44.24 26.3762 44.24 28.5602C44.24 30.7442 42.504 32.4802 40.32 32.4802C38.136 32.4802 36.4 30.7442 36.4 28.5602C36.4 26.3762 38.136 24.6402 40.32 24.6402ZM28 34.7202C30.184 34.7202 31.92 36.4562 31.92 38.6402C31.92 40.8242 30.184 42.5602 28 42.5602C25.816 42.5602 24.08 40.8242 24.08 38.6402C24.08 36.4562 25.816 34.7202 28 34.7202ZM15.68 24.6402C17.864 24.6402 19.6 26.3762 19.6 28.5602C19.6 30.7442 17.864 32.4802 15.68 32.4802C13.496 32.4802 11.76 30.7442 11.76 28.5602C11.76 26.3762 13.496 24.6402 15.68 24.6402ZM6.16004 50.4002V44.2402C6.16004 38.9762 10.416 34.7202 15.68 34.7202C18.144 34.7202 20.328 35.6722 22.008 37.1842C21.896 37.6322 21.84 38.1362 21.84 38.6402C21.84 40.6002 22.792 42.3361 24.192 43.4562C21.616 44.7441 19.824 47.3761 19.6 50.4002H6.16004ZM21.84 50.4002C22.12 47.2641 24.752 44.8001 28 44.8001C31.248 44.8001 33.88 47.2641 34.16 50.4002H21.84ZM49.84 50.4002H36.4C36.176 47.3761 34.384 44.8001 31.808 43.4562C33.264 42.3361 34.16 40.6002 34.16 38.6402C34.16 38.1362 34.104 37.6322 33.992 37.1842C35.672 35.6722 37.912 34.7202 40.32 34.7202C45.584 34.7202 49.84 38.9762 49.84 44.2402V50.4002ZM19.824 18.4802L27.328 24.4162C27.552 24.5842 27.776 24.6402 28 24.6402C28.224 24.6402 28.504 24.5842 28.672 24.4162L36.176 18.4802C39.592 15.6802 40.992 11.9282 39.872 8.45615C38.92 5.54415 36.512 3.52815 33.768 3.36015C33.6 3.36015 33.488 3.36015 33.32 3.36015C31.304 3.36015 29.4 4.14415 28 5.54415C26.488 4.03215 24.36 3.24815 22.232 3.36015C19.488 3.52815 17.08 5.54415 16.128 8.45615C15.008 11.9282 16.352 15.6802 19.824 18.4802ZM18.256 9.12815C18.872 7.16815 20.608 5.71215 22.344 5.60015C22.456 5.60015 22.568 5.60015 22.68 5.60015C24.416 5.60015 26.096 6.44015 27.104 7.89615C27.328 8.17615 27.664 8.34415 28 8.34415C28.336 8.34415 28.672 8.17615 28.896 7.89615C29.904 6.44015 31.584 5.60015 33.32 5.60015C33.432 5.60015 33.544 5.60015 33.656 5.60015C35.448 5.71215 37.128 7.16815 37.744 9.12815C38.584 11.7042 37.52 14.5042 34.776 16.6882L28 22.1202L21.224 16.7442C18.48 14.5042 17.416 11.7601 18.256 9.12815Z"
        fill="#4D44B5" />
</svg>