<svg width="41" height="41" viewBox="0 0 41 41" fill="none" xmlns="http://www.w3.org/2000/svg">
<path d="M18.5849 40.9655H22.4151C23.974 40.9655 25.1931 39.9967 25.5533 38.5047L26.3209 35.1648L26.8231 34.9912L29.737 36.777C31.0525 37.5986 32.594 37.3929 33.7003 36.2797L36.3533 33.6489C37.4665 32.5223 37.6654 30.9721 36.8439 29.6789L35.0271 26.7873L35.2128 26.3195L38.5458 25.5297C40.0225 25.1625 41 23.9349 41 22.3913V18.6672C41 17.127 40.038 15.8925 38.5458 15.5289L35.2437 14.7236L35.0425 14.2248L36.8593 11.3331C37.6843 10.04 37.4819 8.5052 36.3688 7.3631L33.7158 4.7168C32.6251 3.61926 31.0834 3.4067 29.7681 4.21956L26.854 6.00541L26.3209 5.80078L25.5533 2.4609C25.1931 0.965409 23.974 0 22.4151 0H18.5849C17.0258 0 15.8068 0.972203 15.4466 2.4609L14.6635 5.80078L14.1304 6.00541L11.2319 4.21956C9.9165 3.41348 8.35946 3.61926 7.26872 4.7168L4.6311 7.3631C3.51808 8.5052 3.30022 10.04 4.14066 11.3331L5.94199 14.2248L5.75622 14.7236L2.4541 15.5289C0.955215 15.8959 0 17.127 0 18.6672V22.3913C0 23.9349 0.97749 25.1661 2.4541 25.5297L5.78718 26.3195L5.95746 26.7873L4.15614 29.6789C3.3157 30.9721 3.53356 32.5223 4.64658 33.6489L7.28418 36.2797C8.39043 37.3929 9.94746 37.5986 11.2629 36.777L14.1614 34.9912L14.6635 35.1648L15.4466 38.5047C15.8068 39.9967 17.0258 40.9655 18.5849 40.9655ZM19.0533 37.5449C18.7358 37.5449 18.5728 37.4095 18.5195 37.1176L17.4004 32.4664C16.2048 32.1969 15.0573 31.7133 14.1436 31.1287L10.0554 33.638C9.83232 33.8046 9.59369 33.7701 9.37395 33.5504L7.36044 31.5403C7.15278 31.3326 7.1441 31.1095 7.28832 30.8589L9.80777 26.8016C9.28862 25.9 8.78421 24.7662 8.49576 23.5705L3.84464 22.4702C3.55279 22.4171 3.41725 22.2539 3.41725 21.9364V19.1066C3.41725 18.7737 3.53731 18.6293 3.84464 18.5728L8.48028 17.4571C8.77553 16.2028 9.33166 15.0279 9.7768 14.2105L7.27284 10.1532C7.11314 9.88706 7.11842 9.66391 7.32608 9.44079L9.35848 7.46162C9.57821 7.24188 9.78587 7.21092 10.0554 7.37402L14.1093 9.83683C14.9652 9.32599 16.2118 8.81327 17.4125 8.49576L18.5195 3.84804C18.5728 3.55619 18.7358 3.42065 19.0533 3.42065H21.9465C22.2642 3.42065 22.4238 3.55619 22.4649 3.84804L23.603 8.52671C24.8278 8.82535 25.9253 9.3211 26.8598 9.85231L30.9188 7.38082C31.2073 7.21772 31.3961 7.24528 31.6347 7.46842L33.6481 9.44758C33.8713 9.67071 33.8645 9.89385 33.7048 10.16L31.2076 14.2105C31.665 15.0245 32.209 16.2028 32.5009 17.4503L37.1553 18.5728C37.4471 18.6293 37.5828 18.7737 37.5828 19.1066V21.9364C37.5828 22.2539 37.4283 22.4171 37.1553 22.4702L32.4854 23.5772C32.1969 24.7627 31.708 25.9102 31.1767 26.8016L33.686 30.8519C33.8336 31.1027 33.8403 31.3259 33.6172 31.5335L31.6192 33.5436C31.3772 33.7667 31.1575 33.7943 30.9188 33.6312L26.8477 31.1287C25.9169 31.7133 24.836 32.1833 23.603 32.4664L22.4649 37.1176C22.4238 37.4095 22.2642 37.5449 21.9465 37.5449H19.0533ZM20.4983 27.6601C24.4268 27.6601 27.6567 24.4302 27.6567 20.4828C27.6567 16.5698 24.4268 13.3432 20.4983 13.3432C16.5698 13.3432 13.3209 16.5698 13.3209 20.4828C13.3209 24.4181 16.5543 27.6601 20.4983 27.6601ZM20.4983 24.4215C18.3477 24.4215 16.5785 22.6523 16.5785 20.4828C16.5785 18.3477 18.3511 16.5819 20.4983 16.5819C22.6146 16.5819 24.3803 18.3545 24.3803 20.4828C24.3803 22.6368 22.6146 24.4215 20.4983 24.4215Z" fill="black"/>
</svg>
