<svg width="56" height="56" viewBox="0 0 56 56" fill="none" xmlns="http://www.w3.org/2000/svg">
<path d="M28 4.66663C23.0493 4.66663 18.3014 6.63329 14.8007 10.134C11.3 13.6346 9.33337 18.3826 9.33337 23.3333C9.33337 35.9333 25.7834 50.1666 26.4834 50.7733C26.906 51.1348 27.4439 51.3334 28 51.3334C28.5562 51.3334 29.0941 51.1348 29.5167 50.7733C30.3334 50.1666 46.6667 35.9333 46.6667 23.3333C46.6667 18.3826 44.7 13.6346 41.1994 10.134C37.6987 6.63329 32.9507 4.66663 28 4.66663ZM28 45.85C23.03 41.1833 14 31.1266 14 23.3333C14 19.6203 15.475 16.0593 18.1005 13.4338C20.7261 10.8083 24.287 9.33329 28 9.33329C31.7131 9.33329 35.274 10.8083 37.8995 13.4338C40.525 16.0593 42 19.6203 42 23.3333C42 31.1266 32.97 41.2066 28 45.85ZM28 14C26.1541 14 24.3496 14.5473 22.8147 15.5729C21.2799 16.5985 20.0836 18.0561 19.3772 19.7616C18.6707 21.467 18.4859 23.3436 18.846 25.1541C19.2062 26.9646 20.0951 28.6277 21.4004 29.933C22.7057 31.2382 24.3687 32.1272 26.1792 32.4873C27.9897 32.8474 29.8663 32.6626 31.5718 31.9562C33.2772 31.2498 34.7349 30.0535 35.7604 28.5186C36.786 26.9838 37.3334 25.1793 37.3334 23.3333C37.3334 20.8579 36.35 18.484 34.5997 16.7336C32.8494 14.9833 30.4754 14 28 14ZM28 28C27.0771 28 26.1748 27.7263 25.4074 27.2135C24.6399 26.7007 24.0418 25.9719 23.6886 25.1191C23.3354 24.2664 23.243 23.3281 23.423 22.4229C23.6031 21.5176 24.0476 20.6861 24.7002 20.0335C25.3529 19.3808 26.1844 18.9364 27.0896 18.7563C27.9949 18.5762 28.9332 18.6686 29.7859 19.0219C30.6386 19.3751 31.3674 19.9732 31.8802 20.7406C32.393 21.5081 32.6667 22.4103 32.6667 23.3333C32.6667 24.571 32.175 25.758 31.2999 26.6331C30.4247 27.5083 29.2377 28 28 28Z" fill="#4D44B5"/>
</svg>
