<svg width="56" height="56" viewBox="0 0 56 56" fill="none" xmlns="http://www.w3.org/2000/svg">
<g clip-path="url(#clip0_58_309)">
<path d="M53.6667 44.3333H44.17C43.5512 44.3333 42.9577 44.0875 42.5201 43.6499C42.0825 43.2123 41.8367 42.6188 41.8367 42V35H14V42C14 42.6188 13.7542 43.2123 13.3166 43.6499C12.879 44.0875 12.2855 44.3333 11.6667 44.3333H2.33333C1.71449 44.3333 1.121 44.0875 0.683417 43.6499C0.245833 43.2123 0 42.6188 0 42V18.6666C0 16.8101 0.737498 15.0296 2.05025 13.7169C3.36301 12.4041 5.14348 11.6666 7 11.6666H49C50.8565 11.6666 52.637 12.4041 53.9497 13.7169C55.2625 15.0296 56 16.8101 56 18.6666V42C56 42.6188 55.7542 43.2123 55.3166 43.6499C54.879 44.0875 54.2855 44.3333 53.6667 44.3333ZM46.5033 39.6666H51.3333V18.6666C51.3368 18.3593 51.2788 18.0543 51.1627 17.7696C51.0467 17.485 50.8749 17.2264 50.6576 17.009C50.4402 16.7917 50.1816 16.6199 49.897 16.5039C49.6123 16.3879 49.3074 16.3299 49 16.3333H7C6.69263 16.3299 6.38767 16.3879 6.10302 16.5039C5.81837 16.6199 5.55978 16.7917 5.34242 17.009C5.12506 17.2264 4.95332 17.485 4.83728 17.7696C4.72123 18.0543 4.66323 18.3593 4.66667 18.6666V39.6666H9.33333V32.6666C9.33333 32.0478 9.57917 31.4543 10.0168 31.0167C10.4543 30.5791 11.0478 30.3333 11.6667 30.3333H44.17C44.7888 30.3333 45.3823 30.5791 45.8199 31.0167C46.2575 31.4543 46.5033 32.0478 46.5033 32.6666V39.6666Z" fill="#4D44B5"/>
<path d="M44.1771 16.3333H11.6668C11.0479 16.3333 10.4544 16.0875 10.0169 15.6499C9.57927 15.2123 9.33344 14.6188 9.33344 14V2.33333C9.33344 1.71449 9.57927 1.121 10.0169 0.683417C10.4544 0.245833 11.0479 0 11.6668 0L44.1771 0C44.7959 0 45.3894 0.245833 45.827 0.683417C46.2646 1.121 46.5104 1.71449 46.5104 2.33333V14C46.5104 14.6188 46.2646 15.2123 45.827 15.6499C45.3894 16.0875 44.7959 16.3333 44.1771 16.3333ZM14.0001 11.6667H41.8438V4.66667H14.0001V11.6667ZM39.7438 56H16.1001C14.3055 56 12.5843 55.2871 11.3153 54.0181C10.0464 52.7491 9.33344 51.028 9.33344 49.2333V32.6667C9.33344 32.0478 9.57927 31.4543 10.0169 31.0168C10.4544 30.5792 11.0479 30.3333 11.6668 30.3333H44.1701C44.7889 30.3333 45.3824 30.5792 45.82 31.0168C46.2576 31.4543 46.5034 32.0478 46.5034 32.6667V49.2333C46.5034 51.0268 45.7915 52.7468 44.524 54.0156C43.2565 55.2844 41.5372 55.9981 39.7438 56ZM14.0001 35V49.2333C14.0001 49.7903 14.2214 50.3244 14.6152 50.7183C15.009 51.1121 15.5431 51.3333 16.1001 51.3333H39.7438C40.3007 51.3333 40.8349 51.1121 41.2287 50.7183C41.6225 50.3244 41.8438 49.7903 41.8438 49.2333V35H14.0001ZM46.6668 23.3333H44.3334C43.7146 23.3333 43.1211 23.0875 42.6835 22.6499C42.2459 22.2123 42.0001 21.6188 42.0001 21C42.0001 20.3812 42.2459 19.7877 42.6835 19.3501C43.1211 18.9125 43.7146 18.6667 44.3334 18.6667H46.6668C47.2856 18.6667 47.8791 18.9125 48.3167 19.3501C48.7543 19.7877 49.0001 20.3812 49.0001 21C49.0001 21.6188 48.7543 22.2123 48.3167 22.6499C47.8791 23.0875 47.2856 23.3333 46.6668 23.3333Z" fill="#4D44B5"/>
<path d="M34.9999 42H20.9999C20.3811 42 19.7876 41.7542 19.35 41.3166C18.9124 40.879 18.6666 40.2855 18.6666 39.6667C18.6666 39.0479 18.9124 38.4544 19.35 38.0168C19.7876 37.5792 20.3811 37.3334 20.9999 37.3334H34.9999C35.6187 37.3334 36.2122 37.5792 36.6498 38.0168C37.0874 38.4544 37.3332 39.0479 37.3332 39.6667C37.3332 40.2855 37.0874 40.879 36.6498 41.3166C36.2122 41.7542 35.6187 42 34.9999 42ZM27.9999 49H20.9999C20.3811 49 19.7876 48.7542 19.35 48.3166C18.9124 47.879 18.6666 47.2855 18.6666 46.6667C18.6666 46.0479 18.9124 45.4544 19.35 45.0168C19.7876 44.5792 20.3811 44.3334 20.9999 44.3334H27.9999C28.6187 44.3334 29.2122 44.5792 29.6498 45.0168C30.0874 45.4544 30.3332 46.0479 30.3332 46.6667C30.3332 47.2855 30.0874 47.879 29.6498 48.3166C29.2122 48.7542 28.6187 49 27.9999 49Z" fill="#4D44B5"/>
</g>
<defs>
<clipPath id="clip0_58_309">
<rect width="56" height="56" fill="white"/>
</clipPath>
</defs>
</svg>
