<svg width="20" height="13" viewBox="0 0 20 13" fill="none" xmlns="http://www.w3.org/2000/svg">
    <path
        d="M19 1.67857C19.0095 1.60889 19.0095 1.53825 19 1.46857C18.9913 1.40986 18.9745 1.35265 18.9501 1.29857C18.9236 1.2497 18.8935 1.2029 18.8601 1.15857C18.822 1.09533 18.7748 1.03804 18.72 0.988574L18.6 0.918573C18.5423 0.87553 18.4782 0.841788 18.41 0.818573H18.21C18.1491 0.759569 18.078 0.712131 18 0.678574H13C12.7348 0.678574 12.4805 0.783931 12.2929 0.971467C12.1054 1.159 12.0001 1.41336 12.0001 1.67857C12.0001 1.94379 12.1054 2.19814 12.2929 2.38568C12.4805 2.57322 12.7348 2.67857 13 2.67857H15.83L11.8301 7.38857L7.51005 4.81857C7.30543 4.69687 7.06411 4.65217 6.82947 4.6925C6.59484 4.73282 6.38229 4.85554 6.23005 5.03857L1.23005 11.0386C1.14585 11.1396 1.08241 11.2563 1.04336 11.3819C1.00432 11.5075 0.990439 11.6396 1.00251 11.7705C1.01459 11.9015 1.05239 12.0288 1.11374 12.1452C1.17509 12.2615 1.25879 12.3646 1.36005 12.4486C1.53996 12.5977 1.7664 12.679 2.00005 12.6786C2.14696 12.6788 2.29212 12.6467 2.4252 12.5845C2.55829 12.5222 2.67603 12.4315 2.77005 12.3186L7.22005 6.97857L11.4901 9.53857C11.6926 9.6587 11.931 9.7035 12.1633 9.66509C12.3957 9.62667 12.607 9.5075 12.7601 9.32857L17 4.37857V6.67857C17 6.94379 17.1054 7.19814 17.2929 7.38568C17.4805 7.57322 17.7348 7.67857 18 7.67857C18.2653 7.67857 18.5196 7.57322 18.7072 7.38568C18.8947 7.19814 19 6.94379 19 6.67857V1.67857Z"
        fill="#FFFFFF" />
</svg>