<svg width="56" height="56" viewBox="0 0 56 56" fill="none" xmlns="http://www.w3.org/2000/svg">
<g clip-path="url(#clip0_58_286)">
<path d="M33.4365 46.6666H32.9465C31.9589 46.5686 31.0283 46.1583 30.2898 45.4953C29.5513 44.8324 29.0434 43.9512 28.8398 42.9799L22.5865 13.9999L16.1465 28.9332C15.9643 29.3506 15.664 29.7056 15.2826 29.9544C14.9011 30.2031 14.4552 30.3348 13.9998 30.3332H6.99984C6.381 30.3332 5.78751 30.0874 5.34992 29.6498C4.91234 29.2122 4.6665 28.6188 4.6665 27.9999C4.6665 27.3811 4.91234 26.7876 5.34992 26.35C5.78751 25.9124 6.381 25.6666 6.99984 25.6666H12.4598L18.3165 12.1566C18.7108 11.25 19.3827 10.492 20.2355 9.99197C21.0883 9.49192 22.0779 9.27561 23.0616 9.37424C24.0453 9.47286 24.9722 9.88133 25.7088 10.5407C26.4453 11.2002 26.9534 12.0764 27.1598 13.0433L33.4132 41.9999L39.8532 27.1132C40.0282 26.6871 40.3255 26.3224 40.7075 26.0649C41.0895 25.8075 41.5392 25.6689 41.9998 25.6666H48.9998C49.6187 25.6666 50.2122 25.9124 50.6498 26.35C51.0873 26.7876 51.3332 27.3811 51.3332 27.9999C51.3332 28.6188 51.0873 29.2122 50.6498 29.6498C50.2122 30.0874 49.6187 30.3332 48.9998 30.3332H43.5398L37.6832 43.8432C37.3255 44.6751 36.7336 45.385 35.9796 45.8863C35.2255 46.3876 34.342 46.6587 33.4365 46.6666Z" fill="#4D44B5"/>
</g>
<defs>
<clipPath id="clip0_58_286">
<rect width="56" height="56" fill="white"/>
</clipPath>
</defs>
</svg>
