<svg width="56" height="56" viewBox="0 0 56 56" fill="none" xmlns="http://www.w3.org/2000/svg">
<path d="M45.3595 30.3331C44.8462 30.3331 44.3095 30.1698 43.7962 30.0531C42.7566 29.824 41.7351 29.5199 40.7395 29.1431C39.657 28.7493 38.4672 28.7698 37.3989 29.2005C36.3306 29.6313 35.4594 30.4419 34.9528 31.4764L34.4395 32.5264C32.1668 31.2622 30.0785 29.692 28.2328 27.8598C26.4006 26.0141 24.8304 23.9258 23.5662 21.6531L24.5462 20.9998C25.5807 20.4932 26.3913 19.622 26.8221 18.5537C27.2529 17.4854 27.2733 16.2956 26.8795 15.2131C26.509 14.2154 26.205 13.1943 25.9695 12.1564C25.8528 11.6431 25.7595 11.1064 25.6895 10.5698C25.4062 8.92622 24.5453 7.43784 23.262 6.37267C21.9786 5.30749 20.3571 4.73553 18.6895 4.75977H11.6895C10.6839 4.75033 9.68809 4.95767 8.76983 5.36768C7.85157 5.77768 7.03243 6.38073 6.36817 7.13577C5.70392 7.8908 5.21015 8.78009 4.92047 9.74311C4.6308 10.7061 4.55202 11.7202 4.6895 12.7164C5.93256 22.4917 10.3969 31.5742 17.3774 38.5293C24.3578 45.4844 33.4565 49.9156 43.2362 51.1231H44.1228C45.8435 51.1256 47.5048 50.4943 48.7895 49.3498C49.5277 48.6895 50.1174 47.8802 50.5196 46.9752C50.9218 46.0702 51.1274 45.0901 51.1228 44.0998V37.0998C51.0943 35.479 50.5041 33.9184 49.453 32.6843C48.4019 31.4503 46.9551 30.6192 45.3595 30.3331ZM46.5262 44.3331C46.5258 44.6644 46.4548 44.9918 46.318 45.2936C46.1812 45.5953 45.9817 45.8645 45.7328 46.0831C45.4721 46.3082 45.1673 46.4764 44.8378 46.5768C44.5083 46.6773 44.1615 46.7078 43.8195 46.6664C35.0809 45.546 26.9641 41.5482 20.7492 35.3038C14.5343 29.0593 10.5751 20.9236 9.49617 12.1798C9.45903 11.838 9.49158 11.4922 9.59184 11.1634C9.6921 10.8345 9.858 10.5294 10.0795 10.2664C10.2982 10.0175 10.5673 9.81807 10.8691 9.68128C11.1708 9.54449 11.4982 9.47353 11.8295 9.47311H18.8295C19.3721 9.46103 19.902 9.63849 20.3278 9.97494C20.7537 10.3114 21.049 10.7858 21.1628 11.3164C21.2562 11.9542 21.3728 12.5842 21.5128 13.2064C21.7824 14.4364 22.1411 15.6452 22.5862 16.8231L19.3195 18.3398C19.0402 18.4679 18.789 18.65 18.5802 18.8755C18.3715 19.101 18.2093 19.3655 18.1031 19.6539C17.9968 19.9422 17.9486 20.2487 17.9611 20.5558C17.9737 20.8628 18.0468 21.1644 18.1762 21.4431C21.5343 28.6362 27.3164 34.4183 34.5095 37.7764C35.0776 38.0098 35.7148 38.0098 36.2828 37.7764C36.5738 37.6724 36.8413 37.5115 37.0696 37.3032C37.2979 37.0949 37.4826 36.8434 37.6128 36.5631L39.0595 33.2964C40.2658 33.7278 41.4969 34.0862 42.7462 34.3698C43.3684 34.5098 43.9984 34.6264 44.6362 34.7198C45.1668 34.8336 45.6412 35.1289 45.9777 35.5548C46.3141 35.9807 46.4916 36.5105 46.4795 37.0531L46.5262 44.3331Z" fill="#4D44B5"/>
</svg>
