<svg width="56" height="56" viewBox="0 0 56 56" fill="none" xmlns="http://www.w3.org/2000/svg">
<path d="M46.6667 4.66663H23.3334C21.4769 4.66663 19.6964 5.40412 18.3836 6.71688C17.0709 8.02963 16.3334 9.81011 16.3334 11.6666V16.3333H9.33337C7.47686 16.3333 5.69638 17.0708 4.38363 18.3835C3.07087 19.6963 2.33337 21.4768 2.33337 23.3333V37.3333C2.33262 38.7815 2.78104 40.1943 3.61684 41.3769C4.45264 42.5596 5.63468 43.4539 7.00004 43.9366V49C7.00075 49.4134 7.11132 49.8193 7.32041 50.176C7.5295 50.5326 7.82962 50.8274 8.19004 51.03C8.53877 51.2276 8.93254 51.3321 9.33337 51.3333C9.75217 51.3332 10.1632 51.2203 10.5234 51.0066L21.6534 44.3333H32.6667C34.5232 44.3333 36.3037 43.5958 37.6165 42.283C38.9292 40.9703 39.6667 39.1898 39.6667 37.3333V35.8633L45.4767 39.34C45.8369 39.5537 46.2479 39.6665 46.6667 39.6666C47.0675 39.6654 47.4613 39.5609 47.81 39.3633C48.1705 39.1607 48.4706 38.866 48.6797 38.5093C48.8888 38.1526 48.9993 37.7468 49 37.3333V32.27C50.3654 31.7872 51.5474 30.8929 52.3832 29.7103C53.219 28.5276 53.6675 27.1148 53.6667 25.6666V11.6666C53.6667 9.81011 52.9292 8.02963 51.6165 6.71688C50.3037 5.40412 48.5232 4.66663 46.6667 4.66663ZM35 37.3333C35 37.9521 34.7542 38.5456 34.3166 38.9832C33.879 39.4208 33.2855 39.6666 32.6667 39.6666H21C20.5812 39.6668 20.1702 39.7796 19.81 39.9933L11.6667 44.87V42C11.6667 41.3811 11.4209 40.7876 10.9833 40.35C10.5457 39.9125 9.95221 39.6666 9.33337 39.6666C8.71454 39.6666 8.12104 39.4208 7.68346 38.9832C7.24587 38.5456 7.00004 37.9521 7.00004 37.3333V23.3333C7.00004 22.7145 7.24587 22.121 7.68346 21.6834C8.12104 21.2458 8.71454 21 9.33337 21H16.3334V25.6666C16.3334 27.5231 17.0709 29.3036 18.3836 30.6164C19.6964 31.9291 21.4769 32.6666 23.3334 32.6666H34.3467L35 33.0633V37.3333ZM49 25.6666C49 26.2855 48.7542 26.879 48.3166 27.3165C47.879 27.7541 47.2855 28 46.6667 28C46.0479 28 45.4544 28.2458 45.0168 28.6834C44.5792 29.121 44.3334 29.7145 44.3334 30.3333V33.2033L36.19 28.3266C35.8299 28.1129 35.4188 28.0001 35 28H23.3334C22.7145 28 22.121 27.7541 21.6835 27.3165C21.2459 26.879 21 26.2855 21 25.6666V11.6666C21 11.0478 21.2459 10.4543 21.6835 10.0167C22.121 9.57913 22.7145 9.33329 23.3334 9.33329H46.6667C47.2855 9.33329 47.879 9.57913 48.3166 10.0167C48.7542 10.4543 49 11.0478 49 11.6666V25.6666Z" fill="#4D44B5"/>
</svg>
