<svg width="56" height="56" viewBox="0 0 56 56" fill="none" xmlns="http://www.w3.org/2000/svg">
<path d="M46.6668 4.66675H23.3335C21.477 4.66675 19.6965 5.40425 18.3837 6.717C17.071 8.02976 16.3335 9.81023 16.3335 11.6667V16.3334H9.3335C7.47698 16.3334 5.6965 17.0709 4.38375 18.3837C3.07099 19.6964 2.3335 21.4769 2.3335 23.3334V37.3334C2.33274 38.7816 2.78116 40.1944 3.61696 41.377C4.45276 42.5597 5.6348 43.454 7.00016 43.9368V49.0001C7.00088 49.4135 7.11144 49.8194 7.32053 50.1761C7.52963 50.5328 7.82974 50.8275 8.19016 51.0301C8.53889 51.2277 8.93266 51.3322 9.3335 51.3334C9.75229 51.3333 10.1633 51.2205 10.5235 51.0068L21.6535 44.3334H32.6668C34.5233 44.3334 36.3038 43.5959 37.6166 42.2832C38.9293 40.9704 39.6668 39.1899 39.6668 37.3334V35.8634L45.4768 39.3401C45.837 39.5538 46.248 39.6666 46.6668 39.6668C47.0677 39.6655 47.4614 39.5611 47.8102 39.3634C48.1706 39.1608 48.4707 38.8661 48.6798 38.5094C48.8889 38.1527 48.9994 37.7469 49.0002 37.3334V32.2701C50.3655 31.7874 51.5476 30.893 52.3834 29.7104C53.2192 28.5277 53.6676 27.1149 53.6668 25.6667V11.6667C53.6668 9.81023 52.9293 8.02976 51.6166 6.717C50.3038 5.40425 48.5233 4.66675 46.6668 4.66675ZM35.0002 37.3334C35.0002 37.9523 34.7543 38.5457 34.3167 38.9833C33.8792 39.4209 33.2857 39.6668 32.6668 39.6668H21.0002C20.5814 39.6669 20.1703 39.7797 19.8102 39.9934L11.6668 44.8701V42.0001C11.6668 41.3812 11.421 40.7878 10.9834 40.3502C10.5458 39.9126 9.95234 39.6668 9.3335 39.6668C8.71466 39.6668 8.12117 39.4209 7.68358 38.9833C7.246 38.5457 7.00016 37.9523 7.00016 37.3334V23.3334C7.00016 22.7146 7.246 22.1211 7.68358 21.6835C8.12117 21.2459 8.71466 21.0001 9.3335 21.0001H16.3335V25.6667C16.3335 27.5233 17.071 29.3037 18.3837 30.6165C19.6965 31.9293 21.477 32.6667 23.3335 32.6667H34.3468L35.0002 33.0634V37.3334ZM49.0002 25.6667C49.0002 26.2856 48.7543 26.8791 48.3167 27.3167C47.8792 27.7542 47.2857 28.0001 46.6668 28.0001C46.048 28.0001 45.4545 28.2459 45.0169 28.6835C44.5793 29.1211 44.3335 29.7146 44.3335 30.3334V33.2034L36.1902 28.3267C35.83 28.113 35.419 28.0002 35.0002 28.0001H23.3335C22.7147 28.0001 22.1212 27.7542 21.6836 27.3167C21.246 26.8791 21.0002 26.2856 21.0002 25.6667V11.6667C21.0002 11.0479 21.246 10.4544 21.6836 10.0168C22.1212 9.57925 22.7147 9.33342 23.3335 9.33342H46.6668C47.2857 9.33342 47.8792 9.57925 48.3167 10.0168C48.7543 10.4544 49.0002 11.0479 49.0002 11.6667V25.6667Z" fill="#4D44B5"/>
</svg>
