<svg width="56" height="56" viewBox="0 0 56 56" fill="none" xmlns="http://www.w3.org/2000/svg">
<path d="M28 4.66663C23.3851 4.66663 18.8738 6.0351 15.0367 8.599C11.1995 11.1629 8.20883 14.8071 6.44278 19.0707C4.67674 23.3343 4.21466 28.0258 5.11498 32.5521C6.0153 37.0783 8.23759 41.2359 11.5008 44.4991C14.764 47.7623 18.9216 49.9846 23.4479 50.8849C27.9741 51.7853 32.6656 51.3232 36.9292 49.5571C41.1929 47.7911 44.837 44.8004 47.4009 40.9633C49.9648 37.1261 51.3333 32.6149 51.3333 28C51.3333 24.9358 50.7298 21.9016 49.5572 19.0707C48.3845 16.2397 46.6658 13.6675 44.4991 11.5008C42.3324 9.3341 39.7602 7.61538 36.9292 6.44277C34.0983 5.27016 31.0641 4.66663 28 4.66663ZM28 46.6666C24.3081 46.6666 20.699 45.5718 17.6293 43.5207C14.5596 41.4696 12.1671 38.5543 10.7542 35.1434C9.34138 31.7325 8.97172 27.9793 9.69198 24.3583C10.4122 20.7373 12.1901 17.4112 14.8006 14.8006C17.4112 12.1901 20.7373 10.4122 24.3583 9.69197C27.9793 8.97171 31.7325 9.34137 35.1434 10.7542C38.5543 12.167 41.4696 14.5596 43.5207 17.6293C45.5718 20.699 46.6666 24.308 46.6666 28C46.6666 32.9507 44.7 37.6986 41.1993 41.1993C37.6986 44.7 32.9507 46.6666 28 46.6666Z" fill="#4D44B5"/>
<path d="M35 25.6667H30.3333V16.3333C30.3333 15.7145 30.0875 15.121 29.6499 14.6834C29.2123 14.2458 28.6188 14 28 14C27.3811 14 26.7876 14.2458 26.35 14.6834C25.9125 15.121 25.6666 15.7145 25.6666 16.3333V28C25.6666 28.6188 25.9125 29.2123 26.35 29.6499C26.7876 30.0875 27.3811 30.3333 28 30.3333H35C35.6188 30.3333 36.2123 30.0875 36.6499 29.6499C37.0875 29.2123 37.3333 28.6188 37.3333 28C37.3333 27.3812 37.0875 26.7877 36.6499 26.3501C36.2123 25.9125 35.6188 25.6667 35 25.6667Z" fill="#4D44B5"/>
</svg>
