<svg width="24" height="24" viewBox="0 0 24 24" fill="none" xmlns="http://www.w3.org/2000/svg">
<path d="M19.2727 3.81818H17.4545V2.90909C17.4545 2.66799 17.3588 2.43675 17.1883 2.26627C17.0178 2.09578 16.7866 2 16.5455 2C16.3043 2 16.0731 2.09578 15.9026 2.26627C15.7321 2.43675 15.6364 2.66799 15.6364 2.90909V3.81818H12.9091V2.90909C12.9091 2.66799 12.8133 2.43675 12.6428 2.26627C12.4723 2.09578 12.2411 2 12 2C11.7589 2 11.5277 2.09578 11.3572 2.26627C11.1867 2.43675 11.0909 2.66799 11.0909 2.90909V3.81818H8.36364V2.90909C8.36364 2.66799 8.26786 2.43675 8.09737 2.26627C7.92688 2.09578 7.69565 2 7.45455 2C7.21344 2 6.98221 2.09578 6.81172 2.26627C6.64123 2.43675 6.54545 2.66799 6.54545 2.90909V3.81818H4.72727C4.00396 3.81818 3.31026 4.10552 2.7988 4.61698C2.28734 5.12844 2 5.82214 2 6.54545V19.2727C2 19.996 2.28734 20.6897 2.7988 21.2012C3.31026 21.7127 4.00396 22 4.72727 22H19.2727C19.996 22 20.6897 21.7127 21.2012 21.2012C21.7127 20.6897 22 19.996 22 19.2727V6.54545C22 5.82214 21.7127 5.12844 21.2012 4.61698C20.6897 4.10552 19.996 3.81818 19.2727 3.81818ZM3.81818 6.54545C3.81818 6.30435 3.91396 6.07312 4.08445 5.90263C4.25494 5.73214 4.48617 5.63636 4.72727 5.63636H6.54545V6.54545C6.54545 6.78656 6.64123 7.01779 6.81172 7.18828C6.98221 7.35877 7.21344 7.45455 7.45455 7.45455C7.69565 7.45455 7.92688 7.35877 8.09737 7.18828C8.26786 7.01779 8.36364 6.78656 8.36364 6.54545V5.63636H11.0909V6.54545C11.0909 6.78656 11.1867 7.01779 11.3572 7.18828C11.5277 7.35877 11.7589 7.45455 12 7.45455C12.2411 7.45455 12.4723 7.35877 12.6428 7.18828C12.8133 7.01779 12.9091 6.78656 12.9091 6.54545V5.63636H15.6364V6.54545C15.6364 6.78656 15.7321 7.01779 15.9026 7.18828C16.0731 7.35877 16.3043 7.45455 16.5455 7.45455C16.7866 7.45455 17.0178 7.35877 17.1883 7.18828C17.3588 7.01779 17.4545 6.78656 17.4545 6.54545V5.63636H19.2727C19.5138 5.63636 19.7451 5.73214 19.9156 5.90263C20.086 6.07312 20.1818 6.30435 20.1818 6.54545V9.27273H3.81818V6.54545ZM20.1818 19.2727C20.1818 19.5138 20.086 19.7451 19.9156 19.9156C19.7451 20.086 19.5138 20.1818 19.2727 20.1818H4.72727C4.48617 20.1818 4.25494 20.086 4.08445 19.9156C3.91396 19.7451 3.81818 19.5138 3.81818 19.2727V11.0909H20.1818V19.2727Z" fill="white"/>
</svg>
