<svg width="20" height="12" viewBox="0 0 20 12" fill="none" xmlns="http://www.w3.org/2000/svg">
<path d="M19 11C19.0095 11.0697 19.0095 11.1403 19 11.21C18.9913 11.2687 18.9745 11.3259 18.9501 11.38C18.9236 11.4289 18.8935 11.4757 18.8601 11.52C18.822 11.5832 18.7748 11.6405 18.72 11.69L18.6 11.76C18.5423 11.803 18.4782 11.8368 18.41 11.86H18.21C18.1491 11.919 18.078 11.9664 18 12H13C12.7348 12 12.4805 11.8946 12.2929 11.7071C12.1054 11.5196 12.0001 11.2652 12.0001 11C12.0001 10.7348 12.1054 10.4804 12.2929 10.2929C12.4805 10.1054 12.7348 10 13 10H15.83L11.8301 5.29L7.51005 7.86C7.30543 7.9817 7.06411 8.02641 6.82947 7.98608C6.59484 7.94575 6.38229 7.82304 6.23005 7.64L1.23005 1.64C1.14585 1.53895 1.08241 1.42228 1.04336 1.29668C1.00432 1.17108 0.990439 1.039 1.00251 0.908028C1.01459 0.777051 1.05239 0.649745 1.11374 0.533398C1.17509 0.41705 1.25879 0.313949 1.36005 0.23C1.53996 0.0809183 1.7664 -0.00045681 2.00005 0C2.14696 -0.000238419 2.29212 0.0318947 2.4252 0.0941162C2.55829 0.156338 2.67603 0.247118 2.77005 0.360001L7.22005 5.7L11.4901 3.14C11.6926 3.01987 11.931 2.97507 12.1633 3.01349C12.3957 3.0519 12.607 3.17107 12.7601 3.35L17 8.3V6C17 5.73478 17.1054 5.48043 17.2929 5.29289C17.4805 5.10536 17.7348 5 18 5C18.2653 5 18.5196 5.10536 18.7072 5.29289C18.8947 5.48043 19 5.73478 19 6V11Z" fill="#4D44B5"/>
</svg>
