<svg width="20" height="13" viewBox="0 0 20 13" fill="none" xmlns="http://www.w3.org/2000/svg">
<path d="M19 11.6786C19.0095 11.7483 19.0095 11.8189 19 11.8886C18.9913 11.9473 18.9745 12.0045 18.9501 12.0586C18.9236 12.1075 18.8935 12.1543 18.8601 12.1986C18.822 12.2618 18.7748 12.3191 18.72 12.3686L18.6 12.4386C18.5423 12.4816 18.4782 12.5154 18.41 12.5386H18.21C18.1491 12.5976 18.078 12.645 18 12.6786H13C12.7348 12.6786 12.4805 12.5732 12.2929 12.3857C12.1054 12.1982 12.0001 11.9438 12.0001 11.6786C12.0001 11.4134 12.1054 11.159 12.2929 10.9715C12.4805 10.7839 12.7348 10.6786 13 10.6786H15.83L11.8301 5.96859L7.51005 8.53859C7.30543 8.66029 7.06411 8.70499 6.82947 8.66467C6.59484 8.62434 6.38229 8.50162 6.23005 8.31859L1.23005 2.31859C1.14585 2.21754 1.08241 2.10087 1.04336 1.97527C1.00432 1.84967 0.990439 1.71759 1.00251 1.58662C1.01459 1.45564 1.05239 1.32833 1.11374 1.21199C1.17509 1.09564 1.25879 0.992537 1.36005 0.908588C1.53996 0.759507 1.7664 0.678132 2.00005 0.678589C2.14696 0.67835 2.29212 0.710484 2.4252 0.772705C2.55829 0.834927 2.67603 0.925707 2.77005 1.03859L7.22005 6.37859L11.4901 3.81859C11.6926 3.69846 11.931 3.65366 12.1633 3.69208C12.3957 3.73049 12.607 3.84966 12.7601 4.02859L17 8.97859V6.67859C17 6.41337 17.1054 6.15902 17.2929 5.97148C17.4805 5.78395 17.7348 5.67859 18 5.67859C18.2653 5.67859 18.5196 5.78395 18.7072 5.97148C18.8947 6.15902 19 6.41337 19 6.67859V11.6786Z" fill="#4D44B5"/>
</svg>
