<svg width="14" height="15" viewBox="0 0 14 15" fill="none" xmlns="http://www.w3.org/2000/svg">
<path d="M0.278327 14.3994C0.656115 14.7686 1.29329 14.7639 1.653 14.4041L7.00049 9.05573L12.3448 14.4025C12.7108 14.7686 13.3473 14.7742 13.718 14.3979C14.0886 14.02 14.0902 13.3977 13.7242 13.0301L8.37983 7.67612L13.7242 2.33086C14.0902 1.96484 14.0958 1.33538 13.718 0.964657C13.3402 0.586806 12.7108 0.585241 12.3448 0.958397L7.00049 6.30366L1.653 0.956833C1.29329 0.591501 0.648986 0.578111 0.278327 0.963092C-0.0907674 1.34094 -0.0860734 1.96953 0.273633 2.3293L5.62112 7.67612L0.273633 13.0332C-0.0860734 13.3914 -0.097896 14.0287 0.278327 14.3994Z" fill="#4D44B5"/>
</svg>
