<svg width="56" height="56" viewBox="0 0 56 56" fill="none" xmlns="http://www.w3.org/2000/svg">
<path d="M28.0027 21.8398C27.1934 21.8398 26.392 21.9992 25.6443 22.309C24.8966 22.6187 24.2172 23.0726 23.6449 23.6449C23.0726 24.2172 22.6187 24.8965 22.309 25.6442C21.9993 26.3919 21.8399 27.1933 21.8399 28.0026C21.8399 28.812 21.9993 29.6133 22.309 30.361C22.6187 31.1088 23.0726 31.7881 23.6449 32.3604C24.2172 32.9327 24.8966 33.3866 25.6443 33.6963C26.392 34.006 27.1934 34.1654 28.0027 34.1654C29.6371 34.1651 31.2045 33.5154 32.36 32.3594C33.5155 31.2034 34.1644 29.6357 34.1641 28.0012C34.1637 26.3668 33.514 24.7994 32.358 23.6439C31.202 22.4884 29.6343 21.8395 27.9999 21.8398H28.0027ZM8.40267 21.8398C7.59336 21.8398 6.79197 21.9992 6.04427 22.309C5.29656 22.6187 4.61718 23.0726 4.04491 23.6449C3.47264 24.2172 3.01869 24.8965 2.70898 25.6442C2.39927 26.3919 2.23987 27.1933 2.23987 28.0026C2.23987 28.812 2.39927 29.6133 2.70898 30.361C3.01869 31.1088 3.47264 31.7881 4.04491 32.3604C4.61718 32.9327 5.29656 33.3866 6.04427 33.6963C6.79197 34.006 7.59336 34.1654 8.40267 34.1654C10.0371 34.1651 11.6045 33.5154 12.76 32.3594C13.9155 31.2034 14.5644 29.6357 14.5641 28.0012C14.5637 26.3668 13.914 24.7994 12.758 23.6439C11.602 22.4884 10.0343 21.8395 8.39987 21.8398H8.40267ZM47.6027 21.8398C46.7934 21.8398 45.992 21.9992 45.2443 22.309C44.4966 22.6187 43.8172 23.0726 43.2449 23.6449C42.6726 24.2172 42.2187 24.8965 41.909 25.6442C41.5993 26.3919 41.4399 27.1933 41.4399 28.0026C41.4399 28.812 41.5993 29.6133 41.909 30.361C42.2187 31.1088 42.6726 31.7881 43.2449 32.3604C43.8172 32.9327 44.4966 33.3866 45.2443 33.6963C45.992 34.006 46.7934 34.1654 47.6027 34.1654C49.2371 34.1651 50.8045 33.5154 51.96 32.3594C53.1155 31.2034 53.7644 29.6357 53.7641 28.0012C53.7637 26.3668 53.114 24.7994 51.958 23.6439C50.802 22.4884 49.2343 21.8395 47.5999 21.8398H47.6027Z" fill="#4D44B5"/>
</svg>
