<svg width="28" height="28" viewBox="0 0 28 28" fill="none" xmlns="http://www.w3.org/2000/svg">
<g filter="url(#filter0_d_584_1061)">
<path d="M21 4H7C6.20435 4 5.44129 4.31607 4.87868 4.87868C4.31607 5.44129 4 6.20435 4 7V17C4 17.7956 4.31607 18.5587 4.87868 19.1213C5.44129 19.6839 6.20435 20 7 20H21C21.7956 20 22.5587 19.6839 23.1213 19.1213C23.6839 18.5587 24 17.7956 24 17V7C24 6.20435 23.6839 5.44129 23.1213 4.87868C22.5587 4.31607 21.7956 4 21 4ZM20.427 6L14.6 10.8C14.4335 10.9267 14.2312 10.9976 14.022 11.0026C13.8129 11.0077 13.6074 10.9465 13.435 10.828L7.573 6H20.427ZM21 18H7C6.73478 18 6.48043 17.8946 6.29289 17.7071C6.10536 17.5196 6 17.2652 6 17V7.3L12.2 12.4C12.7159 12.7863 13.3435 12.9944 13.988 12.993C14.6551 12.992 15.3037 12.774 15.836 12.372L22 7.3V17C22 17.2652 21.8946 17.5196 21.7071 17.7071C21.5196 17.8946 21.2652 18 21 18Z" fill="white"/>
</g>
<defs>
<filter id="filter0_d_584_1061" x="-2" y="0" width="32" height="32" filterUnits="userSpaceOnUse" color-interpolation-filters="sRGB">
<feFlood flood-opacity="0" result="BackgroundImageFix"/>
<feColorMatrix in="SourceAlpha" type="matrix" values="0 0 0 0 0 0 0 0 0 0 0 0 0 0 0 0 0 0 127 0" result="hardAlpha"/>
<feOffset dy="4"/>
<feGaussianBlur stdDeviation="2"/>
<feComposite in2="hardAlpha" operator="out"/>
<feColorMatrix type="matrix" values="0 0 0 0 0 0 0 0 0 0 0 0 0 0 0 0 0 0 0.25 0"/>
<feBlend mode="normal" in2="BackgroundImageFix" result="effect1_dropShadow_584_1061"/>
<feBlend mode="normal" in="SourceGraphic" in2="effect1_dropShadow_584_1061" result="shape"/>
</filter>
</defs>
</svg>
