<svg width="56" height="56" viewBox="0 0 56 56" fill="none" xmlns="http://www.w3.org/2000/svg">
<path d="M50.7307 30.5809C47.5933 29.444 44.113 29.6968 41.1702 31.2724L36.3731 33.4303C35.9855 31.221 34.2887 29.5607 32.1943 29.4969C32.182 29.4966 25.0016 29.4156 25.0016 29.4156C19.2545 27.8391 15.5202 29.8648 13.3899 31.8611C12.9542 32.2694 12.5711 32.6898 12.2339 33.1044C11.659 32.4853 10.6443 32.3199 9.90437 32.7267L3.38647 36.3095C2.54109 36.7743 2.17326 37.7939 2.52781 38.6901L8.89769 54.7928C9.31625 55.8508 10.6026 56.3184 11.6063 55.7667L18.1242 52.1839C18.7351 51.848 19.0948 51.2222 19.1146 50.5627H28.8425C30.4293 50.5627 31.9959 50.146 33.3729 49.3574C33.3729 49.3574 51.6687 38.8624 51.7719 38.7686C54.334 36.4378 54.413 31.9152 50.7307 30.5809C52.1996 31.1131 47.5933 29.444 50.7307 30.5809ZM11.6645 51.3632L6.715 38.8511L9.84574 37.1303L14.7953 49.6423L11.6645 51.3632ZM49.3237 35.8082L31.4641 46.0357C30.6671 46.4922 29.7604 46.7334 28.8422 46.7334H17.7682L14.0499 37.3338C14.3685 36.6848 14.9958 35.6079 16.0147 34.6531C18.1014 32.6977 20.8519 32.1972 24.1902 33.1658C24.3572 33.2142 24.5299 33.2397 24.7037 33.2417L32.0847 33.3248C32.2731 33.3411 32.621 33.76 32.621 34.3951C32.621 35.0489 32.2618 35.4658 32.0739 35.4658H24.8218V39.2951H32.0739C32.9723 39.2951 33.8084 38.9913 34.5043 38.4708L42.8086 34.7353C42.8526 34.7155 42.8957 34.6942 42.938 34.6711C44.9301 33.5879 47.2936 33.409 49.4221 34.1803C50.2643 34.4857 49.6559 35.471 49.3237 35.8082ZM37.7994 27.5911C30.1931 27.5911 24.0049 21.4024 24.0049 13.7955C24.0049 6.18872 30.193 0 37.7994 0C45.4059 0 51.594 6.18872 51.594 13.7955C51.594 21.4024 45.4057 27.5911 37.7994 27.5911ZM37.7994 3.8293C32.308 3.8293 27.8404 8.30009 27.8404 13.7955C27.8404 19.2909 32.3081 23.7617 37.7994 23.7617C43.291 23.7617 47.7586 19.2908 47.7586 13.7955C47.7586 8.30021 43.2909 3.8293 37.7994 3.8293Z" fill="#4D44B5"/>
<path d="M38.6903 12.2349C37.1653 11.6086 37.0473 11.3395 37.0473 11.0275C37.0473 10.8283 37.1463 10.3651 38.0622 10.3651C38.9002 10.3651 39.9443 10.8355 40.6807 11.3202L41.7051 8.63508C40.9738 8.16949 40.0849 7.76947 39.2539 7.64156V5.89539H36.5226V7.81147C34.9 8.32289 33.9002 9.61998 33.9002 11.2347C33.9002 13.3732 35.611 14.3279 37.2822 14.9788C38.6173 15.5159 38.7292 15.927 38.7292 16.2703C38.7292 16.7984 38.2426 17.1395 37.4894 17.1395C36.5074 17.1395 35.3655 16.5731 34.5661 15.9533L33.5804 18.6815C34.3956 19.3135 35.3392 19.7306 36.4009 19.8863V21.6956H39.1492V19.7261C40.8225 19.1932 41.8935 17.807 41.8935 16.1495C41.8935 13.8293 40.1817 12.8388 38.6903 12.2349Z" fill="#4D44B5"/>
</svg>
