<svg width="56" height="56" viewBox="0 0 56 56" fill="none" xmlns="http://www.w3.org/2000/svg">
<path d="M19.9563 4.91279C16.7564 6.49912 14.065 8.95037 12.1874 11.9885C10.3098 15.0267 9.32105 18.5302 9.33337 22.1018V30.4033C9.33485 31.622 9.81961 32.7903 10.6813 33.652C11.5431 34.5137 12.7114 34.9985 13.93 35H18.6667V49C18.6667 49.6188 18.9125 50.2123 19.3501 50.6499C19.7877 51.0875 20.3812 51.3333 21 51.3333C21.6189 51.3333 22.2124 51.0875 22.6499 50.6499C23.0875 50.2123 23.3334 49.6188 23.3334 49V6.99996C23.333 6.60233 23.2311 6.21138 23.0374 5.86416C22.8436 5.51694 22.5643 5.22497 22.2261 5.01592C21.8879 4.80687 21.5018 4.68767 21.1046 4.66963C20.7074 4.65158 20.3121 4.73528 19.9563 4.91279ZM18.6667 30.3566L14 30.4033V22.1018C13.993 20.0935 14.4044 18.1058 15.2078 16.2652C16.0113 14.4247 17.1892 12.7716 18.6667 11.4114V30.3566ZM42 6.99996V16.3333C41.9992 16.9519 41.7531 17.5449 41.3157 17.9823C40.8783 18.4197 40.2853 18.6658 39.6667 18.6666V6.99996C39.6667 6.38112 39.4209 5.78763 38.9833 5.35004C38.5457 4.91246 37.9522 4.66663 37.3334 4.66663C36.7145 4.66663 36.121 4.91246 35.6834 5.35004C35.2459 5.78763 35 6.38112 35 6.99996V18.6666C34.3814 18.6658 33.7884 18.4197 33.351 17.9823C32.9136 17.5449 32.6675 16.9519 32.6667 16.3333V6.99996C32.6667 6.38112 32.4209 5.78763 31.9833 5.35004C31.5457 4.91246 30.9522 4.66663 30.3334 4.66663C29.7145 4.66663 29.121 4.91246 28.6834 5.35004C28.2459 5.78763 28 6.38112 28 6.99996V16.3333C28.0021 18.1892 28.7402 19.9685 30.0525 21.2808C31.3648 22.5931 33.1441 23.3313 35 23.3333V49C35 49.6188 35.2459 50.2123 35.6834 50.6499C36.121 51.0875 36.7145 51.3333 37.3334 51.3333C37.9522 51.3333 38.5457 51.0875 38.9833 50.6499C39.4209 50.2123 39.6667 49.6188 39.6667 49V23.3333C41.5226 23.3313 43.3019 22.5931 44.6142 21.2808C45.9265 19.9685 46.6647 18.1892 46.6667 16.3333V6.99996C46.6667 6.38112 46.4209 5.78763 45.9833 5.35004C45.5457 4.91246 44.9522 4.66663 44.3334 4.66663C43.7145 4.66663 43.121 4.91246 42.6834 5.35004C42.2459 5.78763 42 6.38112 42 6.99996Z" fill="#4D44B5"/>
</svg>
