<svg width="24" height="24" viewBox="0 0 24 24" fill="none" xmlns="http://www.w3.org/2000/svg">
<g>
	<path class="st0" d="M28,49C16.4,49,7,39.6,7,28c0-6.7,3.3-13.1,8.7-17c0.9-0.6,2.1-0.4,2.8,0.5c0.6,0.9,0.4,2.1-0.5,2.8
		C13.7,17.4,11,22.6,11,28c0,9.4,7.6,17,17,17c9.4,0,17-7.6,17-17c0-5.4-2.6-10.6-7-13.8c-0.9-0.6-1.1-1.9-0.4-2.8
		c0.6-0.9,1.9-1.1,2.8-0.4c5.4,3.9,8.7,10.3,8.7,17C49,39.6,39.6,49,28,49z" fill="#BF2500"/>
	<path class="st0" d="M28,27.5L28,27.5c-1.2,0-2.2-1-2.2-2.2V9.2C25.8,8,26.8,7,28,7h0c1.2,0,2.2,1,2.2,2.2v16.1
		C30.2,26.5,29.2,27.5,28,27.5z" fill="#BF2500"/>
</g>
</svg>
