<svg width="56" height="56" viewBox="0 0 56 56" fill="none" xmlns="http://www.w3.org/2000/svg">
<path d="M50.0117 28.9285V43.4753C50.0117 44.6238 49.082 45.5535 47.9336 45.5535H33.3867C32.2383 45.5535 31.3086 44.6238 31.3086 43.4753V23.3503C31.3086 16.2246 37.0891 10.4441 44.2148 10.4441V17.991C42.7328 17.991 41.393 18.5925 40.425 19.5605C39.457 20.5285 38.8555 21.8683 38.8555 23.3503V26.8503H47.9336C49.082 26.8503 50.0117 27.78 50.0117 28.9285Z" fill="#4D44B5"/>
<path d="M49.1911 28.9286C49.1911 30.7497 49.1911 32.5653 49.1911 34.3864C49.1911 37.0497 49.1911 39.7185 49.1911 42.3817C49.1911 42.688 49.1911 42.9942 49.1911 43.306C49.1911 43.3606 49.1911 43.4153 49.1911 43.47V43.4755C49.1911 43.552 49.1856 43.6286 49.1802 43.6997C49.1856 43.6614 49.213 43.552 49.1747 43.6997C49.1583 43.7708 49.1364 43.8419 49.1145 43.913C49.1091 43.9458 49.0544 44.0606 49.12 43.9185C49.0599 44.0497 48.9888 44.1755 48.9067 44.2849C48.9997 44.1645 48.9231 44.263 48.9013 44.2849C48.852 44.3341 48.7974 44.3833 48.7536 44.4325C48.6552 44.5364 48.7208 44.4599 48.7536 44.438C48.6989 44.4817 48.6388 44.52 48.5731 44.5528C48.5294 44.5747 48.4911 44.5966 48.4474 44.6185C48.2614 44.7224 48.5841 44.5911 48.3763 44.6458C48.327 44.6567 48.2833 44.6731 48.2341 44.6895C48.1849 44.7005 48.1411 44.7114 48.0919 44.7224C48.1903 44.7114 48.1849 44.7114 48.0864 44.7224C48.0044 44.7224 47.9278 44.7278 47.8513 44.7278C47.5833 44.7278 47.3153 44.7278 47.0474 44.7278C44.4388 44.7278 41.8302 44.7278 39.2216 44.7278C37.2856 44.7278 35.3442 44.7552 33.4028 44.7278C33.3372 44.7278 33.2661 44.7224 33.2005 44.7169C33.0638 44.706 33.3755 44.7716 33.1622 44.706C33.102 44.6895 33.0419 44.6731 32.9872 44.6567C32.9489 44.6458 32.8013 44.5856 32.9489 44.6513C32.8833 44.6239 32.8177 44.5911 32.7575 44.5528C32.6974 44.5145 32.6372 44.4763 32.577 44.438C32.6099 44.4599 32.6755 44.5364 32.577 44.4325C32.5278 44.3833 32.4786 44.3286 32.4294 44.2849C32.4075 44.263 32.331 44.1645 32.4239 44.2849C32.3528 44.1864 32.2981 44.0825 32.238 43.9786C32.1341 43.7927 32.2653 44.1153 32.2106 43.9075C32.1942 43.8364 32.1724 43.7653 32.1505 43.6942C32.0849 43.481 32.1505 43.7872 32.1395 43.6559C32.1341 43.5903 32.1341 43.5302 32.1286 43.4645V43.4591C32.1286 43.4427 32.1286 43.4317 32.1286 43.4153C32.1286 43.3497 32.1286 43.2786 32.1286 43.213C32.1286 42.4966 32.1286 41.7802 32.1286 41.0638C32.1286 38.3458 32.1286 35.6278 32.1286 32.9099C32.1286 30.3122 32.1286 27.7145 32.1286 25.1114C32.1286 24.5427 32.1286 23.9685 32.1286 23.3997C32.1286 23.3013 32.1286 23.2028 32.1286 23.1044C32.1341 22.8474 32.145 22.5958 32.1669 22.3388C32.1778 22.213 32.1888 22.0872 32.1997 21.9614C32.2052 21.9122 32.2106 21.863 32.2161 21.8138C32.2216 21.7645 32.2489 21.5841 32.227 21.7317C32.3747 20.7091 32.6372 19.7028 33.0255 18.7458C33.0419 18.702 33.0638 18.6583 33.0802 18.6091C33.0091 18.7786 33.102 18.5544 33.113 18.538C33.1622 18.4286 33.2114 18.3192 33.2661 18.2099C33.3809 17.9692 33.5013 17.7341 33.627 17.5044C33.8567 17.0833 34.1138 16.6786 34.3927 16.2903C34.4638 16.1919 34.5349 16.0989 34.6059 16.0005C34.7481 15.8091 34.502 16.1263 34.6552 15.9403C34.6825 15.902 34.7153 15.8638 34.7427 15.831C34.9067 15.6286 35.0763 15.4263 35.2567 15.2349C35.5958 14.863 35.9513 14.513 36.3286 14.1849C36.5091 14.0263 36.695 13.8731 36.881 13.731C36.7497 13.8349 37.0177 13.627 37.0559 13.5997C37.1599 13.5231 37.2692 13.4466 37.3786 13.3755C37.7833 13.0966 38.2099 12.845 38.6419 12.6153C38.8552 12.506 39.0739 12.3966 39.2927 12.2981C39.3583 12.2708 39.4239 12.238 39.4895 12.2106C39.5169 12.1997 39.6372 12.1505 39.495 12.2106C39.6317 12.156 39.763 12.1013 39.8997 12.052C40.3809 11.8716 40.8731 11.7185 41.3708 11.5981C41.6114 11.538 41.852 11.4888 42.0981 11.445C42.2184 11.4231 42.3442 11.4013 42.4645 11.3849C42.5138 11.3794 42.563 11.3685 42.6122 11.363C42.4263 11.3903 42.6724 11.3575 42.6942 11.3521C43.1974 11.2919 43.706 11.2646 44.2145 11.2646C43.9411 10.9911 43.6677 10.7177 43.3942 10.4442C43.3942 12.6427 43.3942 14.8411 43.3942 17.0395C43.3942 17.3567 43.3942 17.6739 43.3942 17.9911C43.6677 17.7177 43.9411 17.4442 44.2145 17.1708C41.781 17.1927 39.5114 18.6419 38.5489 20.8895C37.9419 22.3169 38.0349 23.8044 38.0349 25.3192C38.0349 25.8278 38.0349 26.3419 38.0349 26.8505C38.0349 27.2935 38.4122 27.6708 38.8552 27.6708C40.1513 27.6708 41.4474 27.6708 42.738 27.6708C44.3895 27.6708 46.0356 27.6708 47.6872 27.6708C47.7583 27.6708 47.8294 27.6708 47.9005 27.6708C47.9114 27.6708 47.9224 27.6708 47.9333 27.6708C48.0099 27.6708 48.0864 27.6763 48.1575 27.6817C47.9934 27.6653 48.2505 27.7091 48.2997 27.7255C48.3435 27.7364 48.3927 27.7528 48.4364 27.7692C48.3599 27.7419 48.3708 27.7364 48.4364 27.7747C48.5184 27.8185 48.6005 27.8677 48.6825 27.9169C48.6935 27.9224 48.7864 27.9935 48.7153 27.9388C48.6333 27.8731 48.781 27.9989 48.7919 28.0153C48.8247 28.0481 48.9942 28.245 48.8958 28.1138C48.945 28.1794 48.9888 28.2505 49.0325 28.3216C49.0544 28.3653 49.0763 28.4036 49.0981 28.4474C49.1528 28.5567 49.0599 28.3325 49.0981 28.4528C49.1255 28.5458 49.1528 28.6388 49.1747 28.7317C49.1966 28.8247 49.1747 28.7099 49.1747 28.6989C49.1856 28.7755 49.1911 28.852 49.1911 28.9286C49.1966 29.3552 49.563 29.7708 50.0114 29.7489C50.4489 29.727 50.8427 29.388 50.8317 28.9286C50.8044 27.3208 49.5138 26.0466 47.9114 26.0302C47.3919 26.0247 46.8778 26.0302 46.3583 26.0302C44.3841 26.0302 42.4044 26.0302 40.4302 26.0302C39.9052 26.0302 39.3802 26.0302 38.8552 26.0302C39.1286 26.3036 39.402 26.577 39.6755 26.8505C39.6755 25.8442 39.6755 24.8435 39.6755 23.8372C39.6755 23.6786 39.6755 23.5255 39.6755 23.3669C39.6755 23.2247 39.681 23.088 39.6919 22.9458C39.7083 22.7216 39.7356 22.552 39.8067 22.2567C40.0419 21.3161 40.5231 20.5395 41.2778 19.8833C41.431 19.7466 41.3927 19.7794 41.5403 19.6755C41.6552 19.5935 41.7755 19.5169 41.8958 19.4458C42.0161 19.3747 42.1419 19.3091 42.2677 19.2435C42.3169 19.2161 42.3716 19.1942 42.4208 19.1724C42.6614 19.063 42.2895 19.2106 42.5411 19.1231C42.8145 19.0302 43.088 18.9427 43.3724 18.888C43.4434 18.8716 43.5145 18.8606 43.5856 18.8497C43.6458 18.8388 43.6458 18.8388 43.5856 18.8497C43.6294 18.8442 43.6731 18.8388 43.7169 18.8388C43.881 18.8224 44.045 18.8169 44.2091 18.8169C44.652 18.8114 45.0294 18.445 45.0294 17.9966C45.0294 15.7981 45.0294 13.5997 45.0294 11.4013C45.0294 11.0841 45.0294 10.7669 45.0294 10.4497C45.0294 10.0067 44.652 9.62939 44.2091 9.62939C39.8122 9.64033 35.6888 11.7731 33.0911 15.306C31.8606 16.9794 31.0184 18.97 30.6849 21.0208C30.5263 21.9888 30.4825 22.9567 30.4825 23.9356C30.4825 26.1778 30.4825 28.42 30.4825 30.6622C30.4825 33.6153 30.4825 36.5685 30.4825 39.5216C30.4825 40.5224 30.4825 41.5286 30.4825 42.5294C30.4825 43.1802 30.4278 43.8747 30.6684 44.4927C31.1114 45.6247 32.1669 46.363 33.3864 46.3794C33.5614 46.3794 33.7419 46.3794 33.9169 46.3794C34.956 46.3794 35.995 46.3794 37.0341 46.3794C39.9161 46.3794 42.8036 46.3794 45.6856 46.3794C46.413 46.3794 47.1403 46.3849 47.8731 46.3794C49.5466 46.3739 50.8263 45.045 50.8263 43.3825C50.8317 41.1895 50.8263 38.9966 50.8263 36.8036C50.8263 34.3208 50.8263 31.838 50.8263 29.3606C50.8263 29.2185 50.8263 29.0763 50.8263 28.9341C50.8263 28.5075 50.4489 28.0919 50.006 28.1138C49.5685 28.1302 49.1911 28.4692 49.1911 28.9286Z" fill="#4D44B5"/>
<path d="M24.6914 28.9285V43.4753C24.6914 44.6238 23.7617 45.5535 22.6133 45.5535H8.06641C6.91797 45.5535 5.98828 44.6238 5.98828 43.4753V23.3503C5.98828 16.2246 11.7687 10.4441 18.8945 10.4441V17.991C17.4125 17.991 16.0727 18.5925 15.1047 19.5605C14.1367 20.5285 13.5352 21.8683 13.5352 23.3503V26.8503H22.6133C23.7617 26.8503 24.6914 27.78 24.6914 28.9285Z" fill="#4D44B5"/>
<path d="M23.8708 28.9286C23.8708 30.7497 23.8708 32.5653 23.8708 34.3864C23.8708 37.0497 23.8708 39.7185 23.8708 42.3817C23.8708 42.688 23.8708 42.9942 23.8708 43.306C23.8708 43.3606 23.8708 43.4153 23.8708 43.47V43.4755C23.8708 43.552 23.8653 43.6286 23.8599 43.6997C23.8653 43.6614 23.8927 43.552 23.8544 43.6997C23.838 43.7708 23.8161 43.8419 23.7942 43.913C23.7888 43.9458 23.7341 44.0606 23.7997 43.9185C23.7395 44.0497 23.6685 44.1755 23.5864 44.2849C23.6794 44.1645 23.6028 44.263 23.581 44.2849C23.5317 44.3341 23.477 44.3833 23.4333 44.4325C23.3349 44.5364 23.4005 44.4599 23.4333 44.438C23.3786 44.4817 23.3185 44.52 23.2528 44.5528C23.2091 44.5747 23.1708 44.5966 23.127 44.6185C22.9411 44.7224 23.2638 44.5911 23.056 44.6458C23.0067 44.6567 22.963 44.6731 22.9138 44.6895C22.8645 44.7005 22.8208 44.7114 22.7716 44.7224C22.87 44.7114 22.8645 44.7114 22.7661 44.7224C22.6841 44.7224 22.6075 44.7278 22.531 44.7278C22.263 44.7278 21.995 44.7278 21.727 44.7278C19.1185 44.7278 16.5099 44.7278 13.9013 44.7278C11.9653 44.7278 10.0239 44.7552 8.08251 44.7278C8.01689 44.7278 7.94579 44.7224 7.88017 44.7169C7.74345 44.706 8.05517 44.7716 7.84189 44.706C7.78173 44.6895 7.72158 44.6731 7.66689 44.6567C7.62861 44.6458 7.48095 44.5856 7.62861 44.6513C7.56298 44.6239 7.49736 44.5911 7.4372 44.5528C7.37704 44.5145 7.31689 44.4763 7.25673 44.438C7.28954 44.4599 7.35517 44.5364 7.25673 44.4325C7.20751 44.3833 7.15829 44.3286 7.10908 44.2849C7.0872 44.263 7.01064 44.1645 7.10361 44.2849C7.03251 44.1864 6.97783 44.0825 6.91767 43.9786C6.81376 43.7927 6.94501 44.1153 6.89033 43.9075C6.87392 43.8364 6.85204 43.7653 6.83017 43.6942C6.76454 43.481 6.83017 43.7872 6.81923 43.6559C6.81376 43.5903 6.81376 43.5302 6.80829 43.4645V43.4591C6.80829 43.4427 6.80829 43.4317 6.80829 43.4153C6.80829 43.3497 6.80829 43.2786 6.80829 43.213C6.80829 42.4966 6.80829 41.7802 6.80829 41.0638C6.80829 38.3458 6.80829 35.6278 6.80829 32.9099C6.80829 30.3122 6.80829 27.7145 6.80829 25.1114C6.80829 24.5427 6.80829 23.9685 6.80829 23.3997C6.80829 23.3013 6.80829 23.2028 6.80829 23.1044C6.81376 22.8474 6.8247 22.5958 6.84658 22.3388C6.85751 22.213 6.86845 22.0872 6.87939 21.9614C6.88486 21.9122 6.89033 21.863 6.89579 21.8138C6.90126 21.7645 6.92861 21.5841 6.90673 21.7317C7.05439 20.7091 7.31689 19.7028 7.70517 18.7458C7.72158 18.702 7.74345 18.6583 7.75986 18.6091C7.68876 18.7786 7.78173 18.5544 7.79267 18.538C7.84189 18.4286 7.89111 18.3192 7.94579 18.2099C8.06064 17.9692 8.18095 17.7341 8.30673 17.5044C8.53642 17.0833 8.79345 16.6786 9.07236 16.2903C9.14345 16.1919 9.21454 16.0989 9.28564 16.0005C9.42783 15.8091 9.18173 16.1263 9.33486 15.9403C9.3622 15.902 9.39501 15.8638 9.42236 15.831C9.58642 15.6286 9.75595 15.4263 9.93642 15.2349C10.2755 14.863 10.631 14.513 11.0083 14.1849C11.1888 14.0263 11.3747 13.8731 11.5606 13.731C11.4294 13.8349 11.6974 13.627 11.7356 13.5997C11.8395 13.5231 11.9489 13.4466 12.0583 13.3755C12.463 13.0966 12.8895 12.845 13.3216 12.6153C13.5349 12.506 13.7536 12.3966 13.9724 12.2981C14.038 12.2708 14.1036 12.238 14.1692 12.2106C14.1966 12.1997 14.3169 12.1505 14.1747 12.2106C14.3114 12.156 14.4427 12.1013 14.5794 12.052C15.0606 11.8716 15.5528 11.7185 16.0505 11.5981C16.2911 11.538 16.5317 11.4888 16.7778 11.445C16.8981 11.4231 17.0239 11.4013 17.1442 11.3849C17.1934 11.3794 17.2427 11.3685 17.2919 11.363C17.106 11.3903 17.352 11.3575 17.3739 11.3521C17.877 11.2919 18.3856 11.2646 18.8942 11.2646C18.6208 10.9911 18.3474 10.7177 18.0739 10.4442C18.0739 12.6427 18.0739 14.8411 18.0739 17.0395C18.0739 17.3567 18.0739 17.6739 18.0739 17.9911C18.3474 17.7177 18.6208 17.4442 18.8942 17.1708C16.4606 17.1927 14.1911 18.6419 13.2286 20.8895C12.6216 22.3169 12.7145 23.8044 12.7145 25.3192C12.7145 25.8278 12.7145 26.3419 12.7145 26.8505C12.7145 27.2935 13.0919 27.6708 13.5349 27.6708C14.831 27.6708 16.127 27.6708 17.4177 27.6708C19.0692 27.6708 20.7153 27.6708 22.3669 27.6708C22.438 27.6708 22.5091 27.6708 22.5802 27.6708C22.5911 27.6708 22.602 27.6708 22.613 27.6708C22.6895 27.6708 22.7661 27.6763 22.8372 27.6817C22.6731 27.6653 22.9302 27.7091 22.9794 27.7255C23.0231 27.7364 23.0724 27.7528 23.1161 27.7692C23.0395 27.7419 23.0505 27.7364 23.1161 27.7747C23.1981 27.8185 23.2802 27.8677 23.3622 27.9169C23.3731 27.9224 23.4661 27.9935 23.395 27.9388C23.313 27.8731 23.4606 27.9989 23.4716 28.0153C23.5044 28.0481 23.6739 28.245 23.5755 28.1138C23.6247 28.1794 23.6685 28.2505 23.7122 28.3216C23.7341 28.3653 23.756 28.4036 23.7778 28.4474C23.8325 28.5567 23.7395 28.3325 23.7778 28.4528C23.8052 28.5458 23.8325 28.6388 23.8544 28.7317C23.8763 28.8247 23.8544 28.7099 23.8544 28.6989C23.8653 28.7755 23.8708 28.852 23.8708 28.9286C23.8763 29.3552 24.2427 29.7708 24.6911 29.7489C25.1286 29.727 25.5224 29.388 25.5114 28.9286C25.4841 27.3208 24.1935 26.0466 22.5911 26.0302C22.0716 26.0247 21.5575 26.0302 21.038 26.0302C19.0638 26.0302 17.0841 26.0302 15.1099 26.0302C14.5849 26.0302 14.0599 26.0302 13.5349 26.0302C13.8083 26.3036 14.0817 26.577 14.3552 26.8505C14.3552 25.8442 14.3552 24.8435 14.3552 23.8372C14.3552 23.6786 14.3552 23.5255 14.3552 23.3669C14.3552 23.2247 14.3606 23.088 14.3716 22.9458C14.388 22.7216 14.4153 22.552 14.4864 22.2567C14.7216 21.3161 15.2028 20.5395 15.9575 19.8833C16.1106 19.7466 16.0724 19.7794 16.22 19.6755C16.3349 19.5935 16.4552 19.5169 16.5755 19.4458C16.6958 19.3747 16.8216 19.3091 16.9474 19.2435C16.9966 19.2161 17.0513 19.1942 17.1005 19.1724C17.3411 19.063 16.9692 19.2106 17.2208 19.1231C17.4942 19.0302 17.7677 18.9427 18.052 18.888C18.1231 18.8716 18.1942 18.8606 18.2653 18.8497C18.3255 18.8388 18.3255 18.8388 18.2653 18.8497C18.3091 18.8442 18.3528 18.8388 18.3966 18.8388C18.5606 18.8224 18.7247 18.8169 18.8888 18.8169C19.3317 18.8114 19.7091 18.445 19.7091 17.9966C19.7091 15.7981 19.7091 13.5997 19.7091 11.4013C19.7091 11.0841 19.7091 10.7669 19.7091 10.4497C19.7091 10.0067 19.3317 9.62939 18.8888 9.62939C14.4919 9.64033 10.3685 11.7731 7.77079 15.306C6.54033 16.9794 5.69814 18.97 5.36454 21.0208C5.20595 21.9888 5.1622 22.9567 5.1622 23.9356C5.1622 26.1778 5.1622 28.42 5.1622 30.6622C5.1622 33.6153 5.1622 36.5685 5.1622 39.5216C5.1622 40.5224 5.1622 41.5286 5.1622 42.5294C5.1622 43.1802 5.10751 43.8747 5.34814 44.4927C5.79111 45.6247 6.84658 46.363 8.06611 46.3794C8.24111 46.3794 8.42158 46.3794 8.59658 46.3794C9.63564 46.3794 10.6747 46.3794 11.7138 46.3794C14.5958 46.3794 17.4833 46.3794 20.3653 46.3794C21.0927 46.3794 21.82 46.3849 22.5528 46.3794C24.2263 46.3739 25.506 45.045 25.506 43.3825C25.5114 41.1895 25.506 38.9966 25.506 36.8036C25.506 34.3208 25.506 31.838 25.506 29.3606C25.506 29.2185 25.506 29.0763 25.506 28.9341C25.506 28.5075 25.1286 28.0919 24.6856 28.1138C24.2481 28.1302 23.8708 28.4692 23.8708 28.9286Z" fill="#4D44B5"/>
</svg>
