<svg width="56" height="56" viewBox="0 0 56 56" fill="none" xmlns="http://www.w3.org/2000/svg">
<path d="M48.3 45.15L38.5 35.35C40.775 32.375 42.175 28.7 42.175 24.675C42.175 15.05 34.3 7.17505 24.675 7.17505C15.05 7.17505 7 15.05 7 24.675C7 34.3 14.875 42.175 24.5 42.175C28.525 42.175 32.375 40.775 35.35 38.325L45.15 48.125C45.5 48.475 46.2 48.825 46.725 48.825C47.25 48.825 47.775 48.65 48.3 48.125C49.175 47.425 49.175 46.025 48.3 45.15ZM11.375 24.675C11.375 17.5 17.325 11.55 24.5 11.55C31.675 11.55 37.625 17.5 37.625 24.675C37.625 31.85 31.675 37.8 24.5 37.8C17.325 37.8 11.375 32.025 11.375 24.675Z" fill="#4D44B5"/>
</svg>
