<svg width="28" height="26" viewBox="0 0 28 26" fill="none" xmlns="http://www.w3.org/2000/svg">
<path d="M13.0554 0.717387C13.3667 -0.178173 14.6333 -0.178173 14.9446 0.717387L17.5334 8.16501C17.6707 8.56008 18.0394 8.82795 18.4575 8.83647L26.3406 8.99711C27.2886 9.01643 27.6799 10.221 26.9244 10.7938L20.6413 15.5573C20.308 15.81 20.1671 16.2434 20.2883 16.6438L22.5715 24.1907C22.846 25.0982 21.8214 25.8426 21.0432 25.3011L14.5712 20.7975C14.2279 20.5586 13.7721 20.5586 13.4288 20.7975L6.95684 25.3011C6.1786 25.8426 5.15396 25.0982 5.42851 24.1907L7.71173 16.6438C7.83285 16.2434 7.69202 15.81 7.35873 15.5573L1.0756 10.7938C0.320066 10.221 0.711446 9.01643 1.65937 8.99711L9.54246 8.83647C9.96063 8.82795 10.3293 8.56008 10.4666 8.16501L13.0554 0.717387Z" fill="#FCC43E"/>
</svg>
