<svg xmlns="http://www.w3.org/2000/svg" version="1.1" xmlns:xlink="http://www.w3.org/1999/xlink"
    xmlns:svgjs="http://svgjs.com/svgjs" width="512" height="512" x="0" y="0" viewBox="0 0 512 512.069"
    style="enable-background:new 0 0 512 512" xml:space="preserve" class="hovered-paths">
    <g>
        <path
            d="m497.977 286.082-2.758-2.77c-18.77-18.683-49.114-18.683-67.88 0l-34.737 34.747a71.063 71.063 0 0 1-26.399 14.773A48.001 48.001 0 0 0 319.984 272h-160a77.363 77.363 0 0 0-61.55 35.48L5.793 460.281a35.202 35.202 0 0 0-1.758 35.594A35.139 35.139 0 0 0 35.81 512h124.175a15.999 15.999 0 0 0 13.313-7.125L200.547 464h151.437c52.38 0 130.258-90.887 146.578-110.664 18.122-18.848 17.864-48.723-.585-67.254zm-22.63 45.23c-.374.364-.722.75-1.05 1.153C440.305 373.793 379.883 432 351.984 432h-160a16 16 0 0 0-13.308 7.129L151.426 480H35.809a13.55 13.55 0 0 1-3.696-.43 11.33 11.33 0 0 1 1.258-3.05l92.633-152.797A45.355 45.355 0 0 1 159.984 304h160c8.84 0 16 7.164 16 16 0 8.84-7.16 16-16 16h-80c-8.836 0-16 7.164-16 16 0 8.84 7.164 16 16 16h109.297a103.924 103.924 0 0 0 65.946-27.309l34.734-34.746c6.36-5.968 16.266-5.968 22.625 0l2.762 2.77c6.183 6.273 6.183 16.348 0 22.62zM152.828 190.313l96 48c.621.273 1.266.507 1.918.695.406.144.8.328 1.215.441 2.633.735 5.418.735 8.05 0 .415-.113.798-.297 1.216-.441a14.5 14.5 0 0 0 1.91-.696l96-48A15.997 15.997 0 0 0 367.984 176V64a15.556 15.556 0 0 0-.597-4.238 13.065 13.065 0 0 0-.52-1.29c-.3-.89-.683-1.753-1.137-2.574-.28-.472-.648-.882-.976-1.336a15.582 15.582 0 0 0-1.602-1.945 14.326 14.326 0 0 0-1.414-1.152 15.908 15.908 0 0 0-1.328-1.07c-.215-.137-.465-.192-.68-.313-.214-.121-.359-.289-.578-.39l-96-48a15.985 15.985 0 0 0-14.308 0l-96 48c-.211.101-.364.277-.57.39-.208.113-.465.176-.68.313-.461.332-.906.69-1.328 1.07a15.52 15.52 0 0 0-1.422 1.152 16.236 16.236 0 0 0-1.602 1.946c-.328.453-.695.863-.976 1.335-.453.82-.836 1.684-1.137 2.575a14.1 14.1 0 0 0-.52 1.289 15.738 15.738 0 0 0-.625 4.238v112a15.998 15.998 0 0 0 8.844 14.313zM175.984 89.89l64 32v76.222l-64-32zm96 108.222v-76.222l64-32v76.222zm-16-164.222L316.204 64l-60.22 30.113L195.77 64zm0 0"
            fill="#ffffff" data-original="#000000" class="hovered-path"></path>
    </g>
</svg>