<svg width="40" height="40" viewBox="0 0 40 40" fill="none" xmlns="http://www.w3.org/2000/svg">
<g clip-path="url(#clip0_948_737)">
<path d="M20.9452 33.5199L33.8663 20.5794C34.8961 19.5498 35 18.9352 35 17.4531V12.4482C35 10.9979 34.656 10.4986 33.5893 9.42974L30.5672 6.41046C29.5089 5.35241 29.0095 5 27.5613 5H22.5448C21.0601 5 20.4679 5.11105 19.4383 6.14297L6.4823 19.0726C4.51994 21.0347 4.48749 23.1197 6.4955 25.1141L14.9027 33.5091C16.9083 35.506 18.9828 35.4844 20.9452 33.5199ZM19.2736 31.5252C18.3903 32.4084 17.4756 32.4239 16.5767 31.5144L8.47975 23.432C7.57613 22.5333 7.59882 21.6055 8.46656 20.7355L21.2637 7.96229C21.5299 7.69851 21.7832 7.54129 22.2126 7.54129H27.5432C27.9378 7.54129 28.2125 7.69244 28.4705 7.95042L32.0576 11.526C32.3156 11.7864 32.456 12.061 32.456 12.4532V17.7935C32.456 18.2289 32.319 18.4845 32.06 18.7411L19.2736 31.5252ZM25.9253 15.9716C27.0017 15.9716 27.8181 15.1338 27.8181 14.0816C27.8181 13.0185 27.0017 12.1892 25.9253 12.1892C24.8404 12.1892 24.035 13.0185 24.035 14.0816C24.035 15.1338 24.8404 15.9716 25.9253 15.9716Z" fill="#C1BBEB"/>
</g>
<defs>
<clipPath id="clip0_948_737">
<rect width="40" height="40" fill="white"/>
</clipPath>
</defs>
</svg>
