<svg width="56" height="56" viewBox="0 0 56 56" fill="none" xmlns="http://www.w3.org/2000/svg">
<g clip-path="url(#clip0_58_327)">
<path d="M49.0003 16.3333C49.0224 16.1707 49.0224 16.0059 49.0003 15.8433C48.98 15.7063 48.9407 15.5728 48.8837 15.4467C48.822 15.3326 48.7518 15.2234 48.6737 15.12C48.5849 14.9724 48.4748 14.8388 48.347 14.7233L48.067 14.56C47.9323 14.4596 47.7827 14.3808 47.6236 14.3267H47.157C47.0148 14.189 46.8488 14.0783 46.667 14H35.0003C34.3815 14 33.788 14.2458 33.3504 14.6834C32.9128 15.121 32.667 15.7145 32.667 16.3333C32.667 16.9522 32.9128 17.5457 33.3504 17.9832C33.788 18.4208 34.3815 18.6667 35.0003 18.6667H41.6037L32.2703 29.6567L22.1903 23.66C21.7129 23.376 21.1498 23.2717 20.6023 23.3658C20.0548 23.4599 19.5589 23.7463 19.2037 24.1733L7.53699 38.1733C7.34052 38.4091 7.19249 38.6813 7.10139 38.9744C7.01028 39.2675 6.97789 39.5757 7.00607 39.8813C7.03425 40.1869 7.12244 40.4839 7.26559 40.7554C7.40875 41.0269 7.60405 41.2675 7.84032 41.4633C8.26012 41.8112 8.78847 42.0011 9.33366 42C9.67645 42.0006 10.0152 41.9256 10.3257 41.7804C10.6362 41.6352 10.9109 41.4234 11.1303 41.16L21.5137 28.7L31.477 34.6733C31.9496 34.9536 32.5059 35.0582 33.048 34.9685C33.5901 34.8789 34.0831 34.6008 34.4403 34.1833L44.3337 22.6333V28C44.3337 28.6188 44.5795 29.2123 45.0171 29.6499C45.4547 30.0875 46.0481 30.3333 46.667 30.3333C47.2858 30.3333 47.8793 30.0875 48.3169 29.6499C48.7545 29.2123 49.0003 28.6188 49.0003 28V16.3333Z" fill="#4D44B5"/>
</g>
<defs>
<clipPath id="clip0_58_327">
<rect width="56" height="56" fill="white"/>
</clipPath>
</defs>
</svg>
