<svg width="56" height="56" viewBox="0 0 56 56" fill="none" xmlns="http://www.w3.org/2000/svg">
<path d="M36.6461 15.225C36.6461 15.7062 36.6133 16.1875 36.5531 16.6632C36.5805 16.4718 36.6078 16.275 36.6297 16.0835C36.4984 17.0351 36.2469 17.9593 35.8805 18.8453C35.9515 18.6703 36.0281 18.4953 36.0992 18.3203C35.7328 19.1843 35.2625 19.9937 34.6883 20.7375C34.8031 20.5898 34.918 20.4421 35.0328 20.2945C34.464 21.0273 33.8023 21.689 33.0695 22.2578C33.2172 22.1429 33.3648 22.0281 33.5125 21.9132C32.7687 22.482 31.9594 22.9578 31.0953 23.3242C31.2703 23.2531 31.4453 23.1765 31.6203 23.1054C30.7344 23.4718 29.8101 23.7234 28.8586 23.8546C29.05 23.8273 29.2469 23.8 29.4383 23.7781C28.4812 23.9039 27.5187 23.9039 26.5617 23.7781C26.7531 23.8054 26.95 23.8328 27.1414 23.8546C26.1898 23.7234 25.2656 23.4718 24.3797 23.1054C24.5547 23.1765 24.7297 23.2531 24.9047 23.3242C24.0406 22.9578 23.2312 22.4875 22.4875 21.9132C22.6351 22.0281 22.7828 22.1429 22.9304 22.2578C22.1976 21.689 21.5359 21.0273 20.9672 20.2945C21.082 20.4421 21.1969 20.5898 21.3117 20.7375C20.7429 19.9937 20.2672 19.1843 19.9008 18.3203C19.9718 18.4953 20.0484 18.6703 20.1195 18.8453C19.7531 17.9593 19.5015 17.0351 19.3703 16.0835C19.3976 16.275 19.425 16.4718 19.4468 16.6632C19.3211 15.7062 19.3211 14.7437 19.4468 13.7867C19.4195 13.9781 19.3922 14.175 19.3703 14.3664C19.5015 13.4148 19.7531 12.4906 20.1195 11.6046C20.0484 11.7796 19.9718 11.9546 19.9008 12.1296C20.2672 11.2656 20.7375 10.4562 21.3117 9.71245C21.1969 9.86011 21.082 10.0078 20.9672 10.1554C21.5359 9.42261 22.1976 8.76089 22.9304 8.19214C22.7828 8.30698 22.6351 8.42183 22.4875 8.53667C23.2312 7.96792 24.0406 7.49214 24.9047 7.12573C24.7297 7.19683 24.5547 7.27339 24.3797 7.34448C25.2656 6.97808 26.1898 6.72651 27.1414 6.59526C26.95 6.62261 26.7531 6.64995 26.5617 6.67183C27.5187 6.54605 28.4812 6.54605 29.4383 6.67183C29.2469 6.64448 29.05 6.61714 28.8586 6.59526C29.8101 6.72651 30.7344 6.97808 31.6203 7.34448C31.4453 7.27339 31.2703 7.19683 31.0953 7.12573C31.9594 7.49214 32.7687 7.96245 33.5125 8.53667C33.3648 8.42183 33.2172 8.30698 33.0695 8.19214C33.8023 8.76089 34.464 9.42261 35.0328 10.1554C34.918 10.0078 34.8031 9.86011 34.6883 9.71245C35.257 10.4562 35.7328 11.2656 36.0992 12.1296C36.0281 11.9546 35.9515 11.7796 35.8805 11.6046C36.2469 12.4906 36.4984 13.4148 36.6297 14.3664C36.6023 14.175 36.575 13.9781 36.5531 13.7867C36.6133 14.2625 36.6406 14.7437 36.6461 15.225C36.6515 16.3679 37.6469 17.4671 38.8336 17.4125C40.0148 17.3578 41.0266 16.45 41.0211 15.225C41.0101 12.6054 40.2226 9.92573 38.6805 7.79292C38.2648 7.2187 37.8219 6.65542 37.3297 6.14683C36.832 5.63276 36.2851 5.1898 35.7164 4.75776C34.6828 3.97026 33.5289 3.39058 32.3039 2.94214C27.3656 1.13198 21.4101 2.74526 18.0687 6.81401C17.6093 7.37183 17.1718 7.95151 16.8 8.57495C16.4281 9.19292 16.1383 9.84917 15.8703 10.5164C15.3672 11.7523 15.1101 13.0648 15.0062 14.3937C14.8039 16.9968 15.482 19.7148 16.8383 21.946C18.1453 24.1007 20.1195 25.9492 22.4273 26.9937C23.1054 27.3 23.8 27.5843 24.5219 27.7867C25.2383 27.9835 25.9656 28.0929 26.7039 28.1804C28.0492 28.339 29.4219 28.2296 30.7508 27.9617C35.7984 26.9335 40.0258 22.5859 40.8078 17.4835C40.9226 16.7398 41.0101 15.996 41.0101 15.2414C41.0156 14.0984 39.9984 12.9992 38.8226 13.0539C37.6414 13.0921 36.6461 14 36.6461 15.225ZM43.9031 49.421C42.8312 49.421 41.7594 49.421 40.6875 49.421C38.1336 49.421 35.5851 49.421 33.0312 49.421C29.9578 49.421 26.8844 49.421 23.8054 49.421C21.1531 49.421 18.5008 49.421 15.8429 49.421C14.6015 49.421 13.3601 49.432 12.1187 49.421C11.982 49.421 11.8453 49.4101 11.714 49.3937C11.9054 49.421 12.1023 49.4484 12.2937 49.4703C12.075 49.4375 11.8672 49.3773 11.6648 49.2953C11.8398 49.3664 12.0148 49.4429 12.1898 49.514C11.9711 49.421 11.7687 49.3007 11.5773 49.1531C11.725 49.2679 11.8726 49.3828 12.0203 49.4976C11.8562 49.3609 11.7031 49.2132 11.5718 49.0492C11.6867 49.1968 11.8015 49.3445 11.9164 49.4921C11.7687 49.3007 11.6539 49.0984 11.5554 48.8796C11.6265 49.0546 11.7031 49.2296 11.7742 49.4046C11.6922 49.2023 11.6375 48.989 11.5992 48.7757C11.6265 48.9671 11.6539 49.164 11.6757 49.3554C11.5882 48.6937 11.6484 47.9937 11.6484 47.3265C11.6484 46.5445 11.6484 45.7679 11.6484 44.9859C11.6484 44.4007 11.6812 43.821 11.7578 43.2414C11.7304 43.4328 11.7031 43.6296 11.6812 43.821C11.8343 42.7 12.1297 41.6007 12.5726 40.5562C12.5015 40.7312 12.425 40.9062 12.3539 41.0812C12.7804 40.0859 13.3273 39.1507 13.989 38.2921C13.8742 38.4398 13.7593 38.5875 13.6445 38.7351C14.3062 37.8875 15.0664 37.1218 15.9195 36.4601C15.7718 36.575 15.6242 36.6898 15.4765 36.8046C16.3351 36.1429 17.2703 35.596 18.2656 35.1695C18.0906 35.2406 17.9156 35.3171 17.7406 35.3882C18.7851 34.9507 19.8789 34.65 21.0054 34.4968C20.814 34.5242 20.6172 34.5515 20.4258 34.5734C21.2351 34.4695 22.039 34.464 22.8539 34.464C23.8547 34.464 24.8554 34.464 25.8562 34.464C28.1914 34.464 30.5265 34.464 32.8617 34.464C33.764 34.464 34.6609 34.4585 35.5633 34.5734C35.3719 34.546 35.175 34.5187 34.9836 34.4968C36.1047 34.65 37.2039 34.9453 38.2484 35.3882C38.0734 35.3171 37.8984 35.2406 37.7234 35.1695C38.7187 35.596 39.6539 36.1429 40.5125 36.8046C40.3648 36.6898 40.2172 36.575 40.0695 36.4601C40.9172 37.1218 41.6828 37.882 42.3445 38.7351C42.2297 38.5875 42.1148 38.4398 42 38.2921C42.6617 39.1507 43.2086 40.0859 43.6352 41.0812C43.5641 40.9062 43.4875 40.7312 43.4164 40.5562C43.8539 41.6007 44.1547 42.6945 44.3078 43.821C44.2805 43.6296 44.2531 43.4328 44.2312 43.2414C44.3352 44.0671 44.3406 44.8875 44.3406 45.7187C44.3406 46.621 44.3406 47.5234 44.3406 48.4257C44.3406 48.7374 44.3516 49.0492 44.3133 49.3554C44.3406 49.164 44.368 48.9671 44.3898 48.7757C44.357 48.9945 44.2969 49.2023 44.2148 49.4046C44.2859 49.2296 44.3625 49.0546 44.4336 48.8796C44.3406 49.0984 44.2203 49.3007 44.0727 49.4921C44.1875 49.3445 44.3023 49.1968 44.4172 49.0492C44.2805 49.2132 44.1328 49.3664 43.9687 49.4976C44.1164 49.3828 44.2641 49.2679 44.4117 49.1531C44.2203 49.3007 44.018 49.4156 43.7992 49.514C43.9742 49.4429 44.1492 49.3664 44.3242 49.2953C44.1219 49.3773 43.9086 49.432 43.6953 49.4703C43.8867 49.4429 44.0836 49.4156 44.275 49.3937C44.1547 49.4101 44.0289 49.4156 43.9031 49.421C43.3398 49.4265 42.7602 49.6617 42.3555 50.0609C41.9781 50.4382 41.6883 51.0617 41.7156 51.6085C41.7703 52.7789 42.6781 53.8125 43.9031 53.796C46.0305 53.7632 47.9008 52.3742 48.5242 50.3343C48.7703 49.525 48.7156 48.6554 48.7156 47.8242C48.7156 45.921 48.7758 44.0343 48.4477 42.1476C47.9664 39.3859 46.5773 36.7882 44.6742 34.7484C42.7711 32.7085 40.2117 31.2101 37.5047 30.5429C35.9515 30.1601 34.3875 30.1 32.8015 30.1C31.1719 30.1 29.5476 30.1 27.9179 30.1C26.3101 30.1 24.7078 30.1 23.1 30.1C21.4758 30.1 19.8625 30.1765 18.282 30.5976C15.5968 31.3085 13.0703 32.8234 11.2054 34.8796C9.32418 36.9523 7.96246 39.5554 7.51949 42.3335C7.22418 44.1984 7.28434 46.0687 7.28434 47.95C7.28434 48.814 7.23512 49.7164 7.54684 50.5421C7.95153 51.6031 8.59684 52.4398 9.54293 53.0687C10.2812 53.5554 11.2164 53.7906 12.0914 53.8015C12.5179 53.807 12.9445 53.8015 13.3711 53.8015C14.4648 53.8015 15.5531 53.8015 16.6468 53.8015C18.2 53.8015 19.7476 53.8015 21.3008 53.8015C23.1054 53.8015 24.9101 53.8015 26.7148 53.8015C28.5687 53.8015 30.4172 53.8015 32.2711 53.8015C33.9664 53.8015 35.6562 53.8015 37.3516 53.8015C38.6805 53.8015 40.0094 53.8015 41.3328 53.8015C42.093 53.8015 42.8531 53.8015 43.6133 53.8015C43.7117 53.8015 43.8102 53.8015 43.9086 53.8015C45.0516 53.8015 46.1508 52.7953 46.0961 51.614C46.0414 50.4218 45.1336 49.421 43.9031 49.421Z" fill="#4D44B5"/>
</svg>
